<?xml version="1.0" encoding="UTF-8"?>
<!DOCTYPE svg PUBLIC "-//W3C//DTD SVG 1.1//EN" "http://www.w3.org/Graphics/SVG/1.1/DTD/svg11.dtd">
<svg xmlns="http://www.w3.org/2000/svg" version="1.1" width="355px" height="132px" style="shape-rendering:geometricPrecision; text-rendering:geometricPrecision; image-rendering:optimizeQuality; fill-rule:evenodd; clip-rule:evenodd" xmlns:xlink="http://www.w3.org/1999/xlink">
<g><path style="opacity:1" fill="#fff" d="M 266.5,131.5 C 265.833,131.5 265.167,131.5 264.5,131.5C 263.833,130.167 263.167,130.167 262.5,131.5C 262.167,131.5 261.833,131.5 261.5,131.5C 261.167,130.167 260.833,130.167 260.5,131.5C 260.167,131.5 259.833,131.5 259.5,131.5C 231.401,131.271 203.234,129.604 175,126.5C 159.386,128.165 143.719,129.165 128,129.5C 103.154,129.42 78.3204,128.92 53.5,128C 41.2983,126.488 29.6316,123.154 18.5,118C 1.68733,108.008 1.35399,97.6748 17.5,87C 25.3982,82.8115 33.7315,79.8115 42.5,78C 46.2422,72.2606 51.2422,67.9273 57.5,65C 64.7051,62.5545 72.0384,60.7212 79.5,59.5C 86.6328,48.8351 96.6328,44.6684 109.5,47C 113.795,47.8978 117.628,49.7311 121,52.5C 129.757,23.4166 149.257,6.91661 179.5,3C 217.281,-0.706842 241.781,15.4598 253,51.5C 253.912,56.4636 254.412,61.4636 254.5,66.5C 277.088,62.7533 296.588,68.7533 313,84.5C 317.722,90.0556 320.889,96.389 322.5,103.5C 331.379,104.294 339.712,106.794 347.5,111C 353.019,116.148 352.352,120.481 345.5,124C 337.758,126.815 329.758,128.482 321.5,129C 303.018,130 284.684,130.833 266.5,131.5 Z"/></g>
</svg>
