<svg xmlns="http://www.w3.org/2000/svg" width="1024" height="1536" style="shape-rendering:geometricPrecision;text-rendering:geometricPrecision;image-rendering:optimizeQuality;fill-rule:evenodd;clip-rule:evenodd"><path fill="#090607" d="M511.5 219.5q34.946 4.734 65.5 23 19.72-8.664 40.5-2.5Q724.795 269.808 767 372.5q14.126 36.252 11 75-.11 6.118-4.5 10-2.574-1.573-4-4a20.1 20.1 0 0 0-1.5-6q1.559 61.974-26.5 117-1.467.467-2 2 9.236 18.41 7.5 39-4.2 29.369-21.5 53a90 90 0 0 1-15 12.5 43 43 0 0 1-13 4.5q-2.412 19.994-14.5 36a214 214 0 0 1-18 17 318.7 318.7 0 0 0-7.5 68q2.398-.401 4 1h-5a298 298 0 0 1-.5-23 229 229 0 0 0-3 14q-.268-5.288-1.5-10a439 439 0 0 1 3-31 7789 7789 0 0 1 17-77.5 75 75 0 0 0-3.5-7.5 12.5 12.5 0 0 1 0-7q1.077-1.426 2.5-.5 7.281 18.395 27 14 15.74-5.006 25-18.5 24.652-33.512 14.5-74-3.95-12.478-15.5-18-14.164-8.192-28 1.5-10.567 9.565-16.5 22.5-9.463 10.798-15-2a284 284 0 0 1-5.5-33 1250 1250 0 0 1-48-11q.762 33.468-14.5 63-15.184 17.407-38.5 17.5-35.4 2.696-70-5-20.022-6.105-29.5-24.5-8.926-24.732-8.5-51l-9-2q-14.75-4.286-29.5 1-4.239 28.988-20.5 53a212.6 212.6 0 0 0-24.5 30q-5.462 11.12-2 23 .565 2.163 2.5 3 3.147 5.9 9 9.5 21.096 9.497 44 5.5 1.937.356 3-1a272 272 0 0 0 18-4q.32 2.466-1 4.5-9.695 5.898-21 7-24.567 3.546-47-6.5-23.68-17.776-11-45 2.005-1.223 3-3.5a238 238 0 0 1-59-3.5q-2.38 2.51-2 6-7.622 23.358-3.5 48a153.5 153.5 0 0 0 4.5 22 55.7 55.7 0 0 1-5.5 13q-1.51 6.917 2 13 11.446 10.1 26.5 13.5a159.4 159.4 0 0 0 43 5.5 920 920 0 0 0 70-2 887 887 0 0 0 44-5q24.609-2.92 48-10a179.7 179.7 0 0 0 33-12.5q14.01-1.532 17.5 12.5 1.522 10.947-5 20-13.758 17.752-34.5 26.5-28.64 12.277-59 17.5a449.4 449.4 0 0 1-96 .5 44.8 44.8 0 0 1-14-6.5q-3.327 2.136-4.5 6-3.107 16.776 11.5 25 1.61 2.077 4 3.5a290 290 0 0 0 17.5 7.5q5.301 58.793 21 116a786 786 0 0 0 8.5 21q-1.776 2.865-4.5 1a2.43 2.43 0 0 0-.5 2 278 278 0 0 1-9.5-20q-20.428-20.874-17-50a137 137 0 0 1 3.5-10.5 278 278 0 0 0-4-19.5q-13.257 14.535-22 32-5.14 6.774-8 15a71.3 71.3 0 0 0-5.5 10q-17.194 47.801-28 97a130.6 130.6 0 0 0 18-29 163.4 163.4 0 0 1 28.5-37.5q7.761-6.255 17.5-8.5a28.7 28.7 0 0 1 8.5 2.5q1.255 1.517 1 3.5a98.4 98.4 0 0 0-14 .5q-4.815 1.773-1.5 5.5 7.23 11.205 15 22a655 655 0 0 1 32 29 143.5 143.5 0 0 1 10.5 16.5q-2 1.005-4 0a217 217 0 0 0-36-34q-12.085-11.309-20-25.5a24 24 0 0 1-2.5-6q-1.574-1.526-3.5-.5-16.174 16.614-26 37.5a435 435 0 0 1-14.5 23 70.5 70.5 0 0 1-10.5 9.5c-1.634.49-3.301.66-5 .5a1282 1282 0 0 1 12.5-58 3101 3101 0 0 1 11.5-42 329 329 0 0 0-22 10.5 1334 1334 0 0 0-73 43q-45.43 33.408-68.5 84.5a527 527 0 0 0-27 77 19939 19939 0 0 0-55 235 1805 1805 0 0 0-17.5 82 3609 3609 0 0 0-14.5 69 126 126 0 0 0-2.5 20h-7a2582 2582 0 0 1 40-192q18.315-82.575 37-165 7.964-29.85 16-60c9.028-33.26 21.862-64.93 38.5-95q24.614-39.615 63.5-65.5a1142 1142 0 0 1 97-53.5q15.283-34.839 40-63.5a151.5 151.5 0 0 1-3.5-25.5q-20.368-5.886-31-24-5.87-15.536 5.5-27.5a121.8 121.8 0 0 1-8.5-28.5 262.3 262.3 0 0 1-48.5-10.5q-13.368-4.536-20.5-16.5-1.82-4.902-1-10 2.758-7.754 5.5-15.5-6.921-26.843-4.5-54.5a78.5 78.5 0 0 1 5.5-21.5q-21.241-3.255-30.5-22.5-9.078-30.589-3-62 4.003-10.503 13.5-16.5a295 295 0 0 1 23-6.5q-13.935-24.129 4-45-13.01-20.035-12-44 1.469-34.347 17-65-5.984 3.663-11.5 10a411 411 0 0 0-20.5 27.5q-1.926 1.026-3.5-.5a16.24 16.24 0 0 1 0-8q11.194-39.399 38-70a364 364 0 0 1 27.5-28q49.763-40.63 113-53a228.8 228.8 0 0 1 61-4" style="opacity:1"/><path fill="#ba6d24" d="M529.5 230.5a81 81 0 0 1 19 5.5q16.562 7.782 33 15.5-.503-1.746 0-4 19.99-5.718 40 .5Q741.554 286.048 770 408.5a138 138 0 0 1 2 34q-6.616-20.228-18-38 19.533 81.197-18 156-9.338-9.547-22.5-12.5-11.03 1.027-22 2a367 367 0 0 1-26-7.5q-3.108-3.447-3-8.5a290.3 290.3 0 0 1 2.5-66.5 289 289 0 0 0 0-34q-1.881-13.524-6.5-26a2745 2745 0 0 0-13.5-39q-1.659-4.84-5.5-8-1.383 7.49.5 15 4.596 14.04 9.5 28l-1 1q-33.612-19.861-52.5-54a446 446 0 0 0-10-37q-2.415 7.732-1 16a3603 3603 0 0 0 12 68q-27.204-21.858-39-55a109.7 109.7 0 0 1-3-23q-4.487 3.937-5 10-2.756 30.124 5 59-36.68-29.008-40.5-76-21.219 23.334-25.5 55l-1 19q-23.598-25.004-17-59a124 124 0 0 1 5-17 288 288 0 0 0 10.5-20q-7.208.948-9.5 8a483 483 0 0 0-36 38q-14.978 23.676-21.5 51-17.586-30.222-7.5-64a476 476 0 0 0 8-23q-8.745 7.783-13 19-23.582 28.157-38 62-8.46-22.765-1-46a133 133 0 0 1 8-21l18.5-25q-2.53-1.602-5 .5a101.6 101.6 0 0 0-11.5 12.5 895 895 0 0 0-42 58q-22.264 41.042-30.5 87-5.662-9.234-7.5-20-3.355-61.182 33.5-110-9.204 4.904-16 14.5-20.288 13.839-33.5 34.5 6.333-22.17 20-41 42.662-59.942 111.5-85.5a332 332 0 0 1 39-9.5q38.515-5.922 77 0" style="opacity:1"/><path fill="#fccf09" d="M645.5 410.5q2.574 2.921 6.5 4 6.923 24.413 5 50a356 356 0 0 0-4.5 74 119 119 0 0 0-21-5c-.02-1.643-16.3-3.157-24-4q-1.551-7.653-5-15-5.254-9.742-16-13a421 421 0 0 0-28-6.5l1-1q-30.435-.67-61 0a276 276 0 0 0-17.5 2.5q-2.064.276-2.5 2-29.56 2.312-31.5 32a104 104 0 0 0-7.5-3q-1.144-1.152-3-1.5a128.7 128.7 0 0 0-26 .5q-4.335-22.563-25.5-27-1.605.042-2.5 1-2.398.401-4-1a310 310 0 0 0-68.5 0q-2.077-.022-3.5-1-10.3-13.442-5.5-30 2.62-7.794 10-11 8.05-68.202 50-122a164 164 0 0 1-2 13q-3.558 24.149 9.5 44.5 2.418 1.08 4.5-.5 9.784-31.76 30-58-4.361 29.993 11 56 3.707 6.006 10.5 6 6.981-46.47 41.5-78-8.45 35.297 11 66a119 119 0 0 0 13.5 12.5 12.9 12.9 0 0 0 5 .5q-3.318-30.675 8.5-59l6-10q9.7 45.23 48.5 69.5a12.9 12.9 0 0 0 5 .5 135.4 135.4 0 0 0-5.5-24 145 145 0 0 1-2-19q13.734 29.226 39.5 48.5 4.56 3.047 9.5 1.5l.5-2.5a235 235 0 0 1-7.5-37.5q18.743 27.999 47.5 45" style="opacity:1"/><path fill="#b77b43" d="M658.5 407.5q4.619 12.476 6.5 26a289 289 0 0 1 0 34 290.3 290.3 0 0 0-2.5 66.5q-.108 5.053 3 8.5h-4a635 635 0 0 1-2-31.5 3065 3065 0 0 0 5-61.5 205 205 0 0 0-1-17.5 1870 1870 0 0 0-5-24.5" style="opacity:1"/><g xmlns="http://www.w3.org/2000/svg" id="brows"><path xmlns="http://www.w3.org/2000/svg" fill="#090403" d="M579.5 463.5q9.889 5.136 15.5 15a12.5 12.5 0 0 1 0 7 7.9 7.9 0 0 1-3.5 1 482 482 0 0 1-21-5q-20.314-6.471-42-7.5l-44-1a6.98 6.98 0 0 1-3.5-2.5q-2.054-7.406 3.5-12.5 15.213-8.243 32.5-6.5 32.465-.057 62.5 12" style="opacity:1"/><path fill="#eddb3b" d="M579.5 463.5q-30.035-12.057-62.5-12-17.287-1.743-32.5 6.5-5.554 5.094-3.5 12.5a6.98 6.98 0 0 0 3.5 2.5l44 1q21.686 1.029 42 7.5a338 338 0 0 0-85-6.5q-4.624-1.179-6.5-5.5a36.6 36.6 0 0 1 1-12q1.003 3.792 2.5 0l-1-2q47.19-13.065 93 4.5 3.126 1.046 5 3.5" style="opacity:1"/><path xmlns="http://www.w3.org/2000/svg" fill="#090503" d="M392.327 476.155a96 96 0 0 1-13 3.5 271 271 0 0 0-63.5 7.5q-2.971-.194-5-2-.376-4.641 1.5-9 3.71-4.957 9-8.5 22.808-11.663 48.5-11.5 11.898-.82 22.5 4.5 7.741 7.628 0 15.5" style="opacity:1;stroke-width:1"/><path xmlns="http://www.w3.org/2000/svg" fill="#b9712b" d="M362.5 462.5a73.3 73.3 0 0 1 24 2.5q6.142 4.507-1 8a1533 1533 0 0 1-40 3 189 189 0 0 0-28 5.5l-1-1q7.438-9.23 19-12.5 13.507-3.744 27-5.5" style="opacity:1"/><path xmlns="http://www.w3.org/2000/svg" fill="#b76e28" d="M503.5 457.5q37.371-2.521 72 11.5 8.639 4.314 15 11.5l-1 1q-50.115-17.952-103-12.5-1.301-3.474 2-6 7.26-3.92 15-5.5" style="opacity:1"/></g><path fill="#eedc3a" d="M602.5 514.5a55.4 55.4 0 0 0-12-9.5q-34.061-11.213-70-10.5a194 194 0 0 0-42 4q.436-1.724 2.5-2a276 276 0 0 1 17.5-2.5q30.565-.67 61 0l-1 1a421 421 0 0 1 28 6.5q10.746 3.258 16 13" style="opacity:1"/><path fill="#fcce05" d="M584.5 510.5q6.411 3.931 12 9.5a4.46 4.46 0 0 0-2 1.5 26 26 0 0 0 3.5 5 129.3 129.3 0 0 1 1 30 8.2 8.2 0 0 1-2.5 4 19.4 19.4 0 0 1 1 8q-5.369.399-1 4-1.113 2.774-3 2 1.566 3.402.5 7-2.637 1.129-6.5 2.5-1.255 1.517-1 3.5a6.85 6.85 0 0 1-4-1q-3.096 2.642-6.5 1a20.4 20.4 0 0 1-5.5 1.5q1.13 2.23 2.5.5 3.448 3.054 7.5 1a4.46 4.46 0 0 1 1.5 2q1.077-1.426 2.5-.5.483 3.915-2 7.5-3.663-.571-2 2-5.792 4.35-13 5.5a258 258 0 0 1-52 2q-4.779-.598-9-2.5-7.296 1.545-14-2 4.399-3.357-1-3v3q-5.323.091-10-2.5a9.5 9.5 0 0 1-1.5-2.5q-1.517 1.255-3.5 1-8.744-3.613-13-12 .814-.09 1-1-12.708-30.304-8.5-63 1.681-7.362 6.5-13 29.802-10.12 61.5-9 30.78.336 60.5 8" style="opacity:1"/><path fill="#ecdd3d" d="M395.5 546.5q2.753.933 3.5 4 6.37-15.483 0-31-1-2-2 0-1.038-6.543-7.5-8.5a89.6 89.6 0 0 0-27-5 361.4 361.4 0 0 0-52 1.5 399 399 0 0 0-3 30.5q.037 4.393 2 7.5-5.388 7.779-4-3a198 198 0 0 1 4.5-36 226 226 0 0 1 34-2 166 166 0 0 1 41.5 3.5q18.999 5.976 18 26a57.7 57.7 0 0 1-3.5 20.5 48 48 0 0 1-4.5-8" style="opacity:1"/><path fill="#f3e846" d="M584.5 510.5a252.4 252.4 0 0 0-60.5-8q-31.698-1.12-61.5 9 6.507-5.102 15-6.5 41.907-6.428 84-1 12.144 1.655 23 6.5" style="opacity:1"/><path fill="#fccf09" d="M395.5 546.5q-16.835-14.661-39.5-13-25.008-.354-46.5 12-1.963-3.107-2-7.5a399 399 0 0 1 3-30.5 361.4 361.4 0 0 1 52-1.5 89.6 89.6 0 0 1 27 5q6.462 1.957 7.5 8.5 1-2 2 0 6.37 15.517 0 31-.747-3.067-3.5-4" style="opacity:1"/><path fill="#58bff1" d="M294.5 507.5h8a183.6 183.6 0 0 0-3 30 342 342 0 0 1-32-7q.983-9.714 8-16.5 9.142-4.854 19-6.5" style="opacity:1"/><path fill="#f5e946" d="M382.5 500.5q.895-.958 2.5-1 21.165 4.437 25.5 27a128.7 128.7 0 0 1 26-.5q1.856.348 3 1.5-14.922-2.415-29.5 1-3.968-23.717-27.5-28" style="opacity:1"/><path fill="#eede3c" d="M564.5 537.5q-33.471-11.68-68-3.5-8.375 2.196-15 7.5.797-3.186 4-4.5 18.13-7.977 38-8.5a518 518 0 0 0 32 2.5q-3.653 1.505 1 1.5a7.9 7.9 0 0 0 3.5-1q.926 1.423-.5 2.5 3.126 1.046 5 3.5" style="opacity:1"/><path fill="#0a0705" d="M564.5 537.5q11.583 6.084 17 18 3.563 20.1-13 31.5a371 371 0 0 1-13 5.5q-31.319 6.677-62-2.5-27.355-10.31-20.5-38.5 2.417-5.662 7.5-9 1 0 1-1 6.625-5.304 15-7.5 34.529-8.18 68 3.5" style="opacity:1"/><path fill="#f0dd38" d="M438.5 534.5q-11.511-.25-23 .5a29 29 0 0 0-4 1.5q-6.328 23.221-14.5 45l-1-1a63.4 63.4 0 0 1-7.5 8q16.261-24.012 20.5-53 14.75-5.286 29.5-1" style="opacity:1"/><path fill="#fdcf08" d="m438.5 534.5 9 2q-.426 26.268 8.5 51 9.478 18.395 29.5 24.5 34.6 7.696 70 5 23.316-.093 38.5-17.5 15.262-29.532 14.5-63a1250 1250 0 0 0 48 11 284 284 0 0 0 5.5 33q5.537 12.798 15 2 5.933-12.935 16.5-22.5 13.836-9.692 28-1.5 3.922 3.134 8.5 8 13.428 22.491 7 48-1 2-2 0a9.5 9.5 0 0 1-1.5 2.5q1.617 1.011 2 3a81.5 81.5 0 0 1-11 25.5q-1.824.894-4 .5 2.305 1.665 2 4.5-9.26 13.494-25 18.5-19.719 4.395-27-14-1.423-.926-2.5.5a12.5 12.5 0 0 0 0 7 75 75 0 0 1 3.5 7.5 7789 7789 0 0 0-17 77.5q-3.71 14.058-4.5 29a1803 1803 0 0 1-1.5 60q-3.983-2.28-2 1.5-4.839 2.418-1 5.5-48.778 58.043-115 94.5a239.5 239.5 0 0 0-34.5 27.5 1561 1561 0 0 0-30.5 37 390 390 0 0 1-36-54 786 786 0 0 1-8.5-21q-15.699-57.207-21-116a290 290 0 0 1-17.5-7.5q-2.39-1.423-4-3.5a64 64 0 0 0-6.5-7q-1.026-1.926.5-3.5a11.3 11.3 0 0 1-3.5-1.5l-1.5-6 2-3q-2.373-4.875 2-8 10.565 6.604 23 7.5 33.5 1 67 0a159 159 0 0 0 23-3 4.93 4.93 0 0 0-3-.5q30.36-5.223 59-17.5 20.742-8.748 34.5-26.5 6.522-9.053 5-20-3.49-14.032-17.5-12.5a179.7 179.7 0 0 1-33 12.5 3368 3368 0 0 1-51 9.5 4.93 4.93 0 0 0 3 .5 887 887 0 0 1-44 5q-4.473-.997-9.5-1a5813 5813 0 0 1-60.5 3 159.4 159.4 0 0 1-43-5.5q-15.054-3.4-26.5-13.5-3.51-6.083-2-13a55.7 55.7 0 0 0 5.5-13 153.5 153.5 0 0 1-4.5-22q-4.122-24.642 3.5-48 1.318-2.595 4-4a1659 1659 0 0 0 54 5q-12.68 27.224 11 45-.197 1.314 1 2 34.377 14.571 68-1.5 4.759-5.748-2.5-6.5-8.144 1.715-15.5 5-1.063 1.356-3 1a1309 1309 0 0 1-23-.5q-17.764-2.136-30-14.5a49 49 0 0 1-3-10.5 285 285 0 0 0 2.5-11.5q7.564-16.083 21-28a30 30 0 0 0 3.5-6 63.4 63.4 0 0 0 7.5-8l1 1q8.172-21.779 14.5-45a29 29 0 0 1 4-1.5q11.489-.75 23-.5" style="opacity:1"/><path fill="#fafbf8" d="M509.5 536.5q22.27-1.225 44 3.5 10.739 2.74 18.5 10.5 12.771 24.668-13.5 34.5-32.155 9.327-64-1-22.93-8.605-15.5-31.5a20.23 20.23 0 0 1 7.5-7.5q11.07-5.934 23-8.5" style="opacity:1"/><path fill="#fbfcf8" d="M342.5 539.5a191.6 191.6 0 0 1 31 1.5q15.372 3.399 21.5 17.5a12.5 12.5 0 0 1 0 7 154 154 0 0 1-10.5 17.5 71.4 71.4 0 0 1-20 7 240 240 0 0 1-31 0q-13.377-1.785-23.5-10.5-7.33-11.618-2-24 14.851-13.359 34.5-16" style="opacity:1"/><g xmlns="http://www.w3.org/2000/svg" id="eyes" fill="#040404"><path xmlns="http://www.w3.org/2000/svg" d="M358.5 550.5q16.2-.047 13.5 16-7.031 9.653-17.5 3.5-9.22-12.156 4-19.5M527.5 549.5q18.303-.462 13.5 17-11.19 10.634-20-2-2.452-10.088 6.5-15" style="opacity:1"/></g><path fill="#b86e27" d="M662.5 549.5a183 183 0 0 1 26 7 39 39 0 0 0-5.5 5 268 268 0 0 1-11 19q-1.665 2.305-4.5 2a339 339 0 0 1-5-33" style="opacity:1"/><path fill="#52bcf2" d="M266.5 536.5a281 281 0 0 0 32 8q-.25 10.512.5 21a41.6 41.6 0 0 0 4.5 15.5 138 138 0 0 0-6 18.5q-16.518-1.132-25.5-15-9.31-23.236-5.5-48" style="opacity:1"/><path fill="#e1d43b" d="M462.5 511.5q-4.819 5.638-6.5 13-4.208 32.696 8.5 63-.186.91-1 1-13.347-31.77-8.5-66 1.6-7.272 7.5-11" style="opacity:1"/><path fill="#0e0a05" d="M715.5 626.5q-2.385 2.886-5.5 1l-1-22a20.9 20.9 0 0 0-4.5-8.5q-1-1-2 0a36 36 0 0 0-3.5 4.5 694 694 0 0 1-10.5 22.5q-3.161 1.282-4-2a67 67 0 0 1 3-9.5q5.087-16.326 17-28.5a53.2 53.2 0 0 1 11-6q4.593-1.112 9 .5 1.847 1.726 0 3.5-10.554.277-17 8.5 9.789 9.849 9 24a253 253 0 0 1-1 12" style="opacity:1"/><path fill="#eee040" d="M480.5 542.5q-5.083 3.338-7.5 9-6.855 28.19 20.5 38.5 30.681 9.177 62 2.5-5.884 3.327-13 3.5a147.9 147.9 0 0 1-44-3q-35.58-10.212-27-45.5a48.3 48.3 0 0 1 7-5.5q1.405-1.038 2 .5" style="opacity:1"/><path fill="#e8d93a" d="M581.5 555.5q6.075 31.233-26 37a371 371 0 0 0 13-5.5q16.563-11.4 13-31.5" style="opacity:1"/><path fill="#f2d52a" d="M584.5 510.5q12.527 3.278 15.5 16 4.69 34.995-10 67-8.696 13.23-24.5 15.5-39.285 5.919-78-3-6.057-2.029-11-5.5 1.983.255 3.5-1 .561 1.375 1.5 2.5 4.677 2.591 10 2.5v-3q5.399-.357 1 3 6.704 3.545 14 2 4.221 1.902 9 2.5a258 258 0 0 0 52-2q7.208-1.15 13-5.5-1.663-2.571 2-2 2.483-3.585 2-7.5-1.423-.926-2.5.5a4.46 4.46 0 0 0-1.5-2q-4.052 2.054-7.5-1-1.37 1.73-2.5-.5a20.4 20.4 0 0 0 5.5-1.5q3.404 1.642 6.5-1a6.85 6.85 0 0 0 4 1q-.255-1.983 1-3.5 3.863-1.371 6.5-2.5 1.066-3.598-.5-7 1.887.774 3-2-4.369-3.601 1-4a19.4 19.4 0 0 0-1-8 8.2 8.2 0 0 0 2.5-4 129.3 129.3 0 0 0-1-30 26 26 0 0 1-3.5-5 4.46 4.46 0 0 1 2-1.5q-5.589-5.569-12-9.5" style="opacity:1"/><path fill="#f5d31f" d="M308.5 586.5q5.76 3.466 12 6.5 27.484 6.466 55 1-3.616 6.12-10 9a228.4 228.4 0 0 1-52 0q-5.306-.217-10-2.5 2.513-7.043 5-14" style="opacity:1"/><path fill="#eedf44" d="M721.5 558.5q11.55 5.522 15.5 18 10.152 40.488-14.5 74 .305-2.835-2-4.5 2.176.394 4-.5a81.5 81.5 0 0 0 11-25.5q-.383-1.989-2-3a9.5 9.5 0 0 0 1.5-2.5q1 2 2 0 6.428-25.509-7-48-4.578-4.866-8.5-8" style="opacity:1"/><path fill="#eddf3f" d="M388.5 588.5a30 30 0 0 1-3.5 6q-13.436 11.917-21 28a285 285 0 0 1-2.5 11.5 49 49 0 0 0 3 10.5q-1.935-.837-2.5-3-3.462-11.88 2-23a212.6 212.6 0 0 1 24.5-30" style="opacity:1"/><path fill="#f1e740" d="M358.5 614.5a1659 1659 0 0 1-54-5q-2.682 1.405-4 4-.38-3.49 2-6a238 238 0 0 0 59 3.5q-.995 2.277-3 3.5" style="opacity:1"/><path fill="#f3e23f" d="M715.5 626.5a8.4 8.4 0 0 1-.5 4 18 18 0 0 1-7-3 142 142 0 0 0 0-19 27.2 27.2 0 0 0-3.5-9.5q-1-1-2 0a668 668 0 0 0-13 26q-5.553 2.09-6-3.5.32-5.544 4-9a67 67 0 0 0-3 9.5q.839 3.282 4 2a694 694 0 0 0 10.5-22.5 36 36 0 0 1 3.5-4.5q1-1 2 0a20.9 20.9 0 0 1 4.5 8.5l1 22q3.115 1.886 5.5-1" style="opacity:1"/><path fill="#ebdd44" d="M364.5 644.5q12.236 12.364 30 14.5 11.784.357 23 .5-22.904 3.997-44-5.5-5.853-3.6-9-9.5" style="opacity:1"/><path fill="#eee13b" d="M369.5 659.5q22.433 10.046 47 6.5 11.305-1.102 21-7 1.32-2.034 1-4.5a272 272 0 0 1-18 4q7.356-3.285 15.5-5 7.259.752 2.5 6.5-33.623 16.071-68 1.5-1.197-.686-1-2" style="opacity:1"/><path fill="#0c0805" d="M566.5 675.5q35.422 8.886 34 45-1.783 1.393-4 1-1-30.53-30-41-1.749-2.5 0-5" style="opacity:1"/><path fill="#ad6527" d="M677.5 673.5a37 37 0 0 0 13 3q-4.175 24.346-22.5 41a519 519 0 0 1 9.5-44" style="opacity:1"/><path fill="#fafbf7" d="M564.5 704.5q6.634.366 8.5 7 1.266 15.784-11.5 25.5a143 143 0 0 1-19 12.5 566 566 0 0 1-9-32q16.252-5.073 31-13" style="opacity:1"/><path fill="#eadc3e" d="M529.5 711.5q-23.391 7.08-48 10a4.93 4.93 0 0 1-3-.5 3368 3368 0 0 0 51-9.5" style="opacity:1"/><path fill="#fafbf8" d="M526.5 718.5q1.496-.045 2 1.5a208.3 208.3 0 0 1 7.5 32.5 277 277 0 0 1-37.5 13l-9-38a364 364 0 0 0 37-9" style="opacity:1"/><path fill="#f5ec45" d="M437.5 726.5a920 920 0 0 1-70 2 5813 5813 0 0 0 60.5-3q5.027.003 9.5 1" style="opacity:1"/><path fill="#fafbf8" d="M482.5 727.5q2.146.572 2.5 3l7.5 34-1 2a255 255 0 0 1-40 5 2385 2385 0 0 1-7-39 377 377 0 0 0 38-5" style="opacity:1"/><path fill="#f9faf7" d="M436.5 732.5q1.875.116 2.5 2a1478 1478 0 0 0 7.5 37 228.7 228.7 0 0 1-37 .5 475 475 0 0 0-13-36.5 842 842 0 0 0 40-3" style="opacity:1"/><path fill="#fafbf8" d="M364.5 735.5q13.537-.498 27 1a1027 1027 0 0 1 12 34q-13.625 1.731-26-4.5a25.6 25.6 0 0 1-5.5-6.5 143 143 0 0 1-7.5-24" style="opacity:1"/><path fill="#f7e949" d="M654.5 747.5a439 439 0 0 0-3 31 360 360 0 0 0 0 53.5q-1.355 6.606-6 11.5-3.839-3.082 1-5.5-1.983-3.78 2-1.5a1803 1803 0 0 0 1.5-60q.79-14.942 4.5-29" style="opacity:1"/><path fill="#ecdd40" d="M481.5 775.5a4.93 4.93 0 0 1 3 .5 159 159 0 0 1-23 3 1122 1122 0 0 1-67 0q-12.435-.896-23-7.5-4.373 3.125-2 8l-2 3 1.5 6a11.3 11.3 0 0 0 3.5 1.5q-1.526 1.574-.5 3.5a64 64 0 0 1 6.5 7q-14.607-8.224-11.5-25 1.173-3.864 4.5-6a44.8 44.8 0 0 0 14 6.5 449.4 449.4 0 0 0 96-.5" style="opacity:1"/><path fill="#0a0304" d="M661.5 797.5a25.9 25.9 0 0 1 9 3.5l10.5 10.5a773 773 0 0 1 30 57 433 433 0 0 0 17.5 9 2466 2466 0 0 1 84 42 2778 2778 0 0 1 60 35.5 611 611 0 0 1 39 27.5c22.052 21.41 38.052 46.74 48 76a670 670 0 0 1 17.5 60c19.341 91.82 30.51 184.49 33.5 278 .17 34.35-.5 68.69-2 103q-1.5 17.775-3 36h-6c8.12-109.52 3.79-218.52-13-327a493 493 0 0 0-8-47 626.4 626.4 0 0 0-25.5-102c-10.991-32.66-30.157-59.49-57.5-80.5q-47.497-32.933-99-60a5205 5205 0 0 0-86-43.5 166.5 166.5 0 0 1-14.5 37q-1.124 1.702.5 3a2510 2510 0 0 1 104 51.5 805 805 0 0 1 59.5 39.5q16.824-13.793 38.5-13.5 2 2 0 4c-13.841 1.425-26.174 6.42-37 15-22.745 17.65-39.578 39.81-50.5 66.5-12.312 28.44-19.812 58.1-22.5 89a613.3 613.3 0 0 0 1 128c1.389 41.33 2.889 82.67 4.5 124q.75 40.5.5 81v35h-7c1.088-34.66 1.254-69.32.5-104a12304 12304 0 0 0-4.5-128 1057 1057 0 0 1-3-95q-.86-81.045 35.5-153c10.448-17.62 23.614-32.95 39.5-46a661 661 0 0 0-88-54.5 3777 3777 0 0 1-74-35.5 2847 2847 0 0 1-60.5 108c-4.603 3.72-9.436 3.89-14.5.5a129.4 129.4 0 0 1-22-16 457 457 0 0 1-35-37q-25.008 10.515-48 26-16.436 17.115-21.5 40.5a452 452 0 0 0-7 37 9109 9109 0 0 0-37 277 98.4 98.4 0 0 0-.5 14 5428 5428 0 0 0-14 160v6h-6c3.982-50.67 8.149-101.34 12.5-152a4663 4663 0 0 1 29-222 5102 5102 0 0 1 11-89 267.2 267.2 0 0 1 16-58q7.66-12.66 19.5-21.5a1487 1487 0 0 0 41-23.5q-9.476-14.478-27-12 4.349-5.546 11.5-5 7.082-.086 12.5 4.5a552 552 0 0 1 26.5 29.5q19.096 22.11 43.5 37.5c1.941.74 3.774.58 5.5-.5a8001 8001 0 0 0 58-105 204.7 204.7 0 0 0 17.5-49 755 755 0 0 0-30.5-56q-6.08-8.661-16.5-10-.25 11.511.5 23 4.518-7 10-13 1.305.912 1.5 2.5-20.134 38.673-53 68a655 655 0 0 1-33 28 1788 1788 0 0 1-60 39q-31.953 24.95-54.5 58.5-20.266 15.045-28 39a394 394 0 0 0-13 62 8273 8273 0 0 0-44 370 2145 2145 0 0 0-3.5 55h-6a697 697 0 0 1 3.5-56c4.832-48.31 9.832-96.64 15-145l29-225a386.7 386.7 0 0 1 16-68c5.326-12.69 12.826-23.86 22.5-33.5a480 480 0 0 0-21.5-30.5 280 280 0 0 1-14.5-26 2.43 2.43 0 0 1 .5-2q2.724 1.865 4.5-1a390 390 0 0 0 36 54 1561 1561 0 0 1 30.5-37 239.5 239.5 0 0 1 34.5-27.5q66.222-36.457 115-94.5 4.645-4.894 6-11.5a360 360 0 0 1 0-53.5q1.232 4.712 1.5 10a229 229 0 0 1 3-14q-.2 11.282.5 23z" style="opacity:1"/><path fill="#ba4239" d="M402.5 883.5a39 39 0 0 1 2.5 5 159.5 159.5 0 0 0 6.5 27l-1 1q-10.199-15.077-8-33" style="opacity:1"/><path fill="#c0332c" d="M780.5 1208.5a643 643 0 0 0-.5 62 344 344 0 0 0 3.5 33c1.722 42.66 3.222 85.32 4.5 128 .754 34.68.588 69.34-.5 104h-354v-6c1.635-10.05 3.302-20.38 5-31a31 31 0 0 1 4.5-5c.914 1.15 1.747.99 2.5-.5-1.801-.32-2.134-.98-1-2q-2.42-9.375-3-19.5a223 223 0 0 0-1.5 21l-1 3a392.5 392.5 0 0 1 5-61c.777 4.72.61 9.39-.5 14a10.6 10.6 0 0 0 2.5 3l1 13q1.554-5.415.5-10.5c.327-1.81.993-3.48 2-5-.444-1.76-.944-1.6-1.5.5q-2.239-7.365-1-15c.667 1.33 1.333 2.67 2 4q1.134-3.465-1.5-6 .314-.885 1-1.5a265 265 0 0 1-1.5-22.5c-.182 6.4-.848 12.73-2 19l-.5-10a752 752 0 0 0 3-48 98.4 98.4 0 0 1 .5-14 9109 9109 0 0 1 37-277 452 452 0 0 1 7-37q5.064-23.385 21.5-40.5 22.992-15.485 48-26a457 457 0 0 0 35 37 129.4 129.4 0 0 0 22 16c5.064 3.39 9.897 3.22 14.5-.5a2847 2847 0 0 0 60.5-108 3777 3777 0 0 0 74 35.5 661 661 0 0 1 88 54.5c-15.886 13.05-29.052 28.38-39.5 46q-36.36 71.955-35.5 153" style="opacity:1"/><path fill="#0d0302" d="M625.5 1175.5q49.747 3.42 100 6c9.999.61 13.666 5.94 11 16a2229 2229 0 0 1-14.5 158q-4.285 6.78-11.5 10.5a1105 1105 0 0 1-68 32c-7.597 3.87-15.597 5.2-24 4q-42.435-17.46-79-45c-3.262-2.59-5.762-5.76-7.5-9.5a385 385 0 0 1 1-51l12-122c1.633-2.65 3.967-3.98 7-4 24.523 2.21 49.023 3.87 73.5 5" style="opacity:1"/><path fill="#ac3f39" d="M625.5 1175.5c18.849.19 37.682.86 56.5 2 8.003-.38 15.836-.55 23.5-.5-.667.33-1.333.67-2 1 7.504.98 14.837 2.14 22 3.5a5776 5776 0 0 1-100-6" style="opacity:1"/><path fill="#bf342c" d="M427.5 1535.5h-47c.931-18.35 2.098-36.68 3.5-55a8273 8273 0 0 1 44-370 394 394 0 0 1 13-62q7.734-23.955 28-39 22.547-33.55 54.5-58.5a1788 1788 0 0 0 60-39 655 655 0 0 0 33-28q32.866-29.327 53-68-.195-1.588-1.5-2.5a98 98 0 0 0-10 13q-.75-11.489-.5-23 10.42 1.339 16.5 10a755 755 0 0 1 30.5 56 204.7 204.7 0 0 1-17.5 49 8001 8001 0 0 1-58 105c-1.726 1.08-3.559 1.24-5.5.5q-24.404-15.39-43.5-37.5a552 552 0 0 0-26.5-29.5q-5.418-4.586-12.5-4.5-7.151-.546-11.5 5 17.524-2.478 27 12a1487 1487 0 0 1-41 23.5q-11.84 8.84-19.5 21.5a267.2 267.2 0 0 0-16 58 5102 5102 0 0 0-11 89 4663 4663 0 0 0-29 222c-4.351 50.66-8.518 101.33-12.5 152" style="opacity:1"/><path fill="#0b0606" d="M455.5 1046.5q21.159-3.09 19.5 18-5.68 11.715-18.5 10.5-18.981-13.965-1-28.5" style="opacity:1"/><path fill="#f0f2f1" d="M458.5 1051.5c5.808-.85 9.642 1.49 11.5 7q.793 7.65-6.5 10.5c-8.426.23-11.926-3.94-10.5-12.5 1.73-1.9 3.563-3.57 5.5-5" style="opacity:1"/><path fill="#bd3d36" d="M727.5 1187.5c-24.021.1-48.021-.56-72-2-3.667.17-7.333.33-11 .5.667.33 1.333.67 2 1q-1.9.465-3.5 1.5c-6.418-1.14-12.918-1.31-19.5-.5-2.46.4-4.46 1.56-6 3.5-1.795-2.2-4.129-3.37-7-3.5.833-.83 1.667-1.67 2.5-2.5 1.011.84 2.178 1.17 3.5 1v-4c-6.67-.21-13.336-.55-20-1-4.83.81-9.997 1.48-15.5 2a61 61 0 0 1-16.5-2c-1.211.77-1.211 1.61 0 2.5q-2.401.405-4.5 1.5c-.127-1.28.373-2.44 1.5-3.5-.789-.55-1.789-1.21-3-2q10.488.255 21 0c-4.394-.3-8.727-.97-13-2a49 49 0 0 0-14 0 1018 1018 0 0 1-5 39.5c.363.68.696 1.35 1 2q-1.897-1.515-2-4.5c1.371-12.84 2.704-25.67 4-38.5a1148 1148 0 0 1 71 5.5c35.487 1.94 70.82 3.77 106 5.5" style="opacity:1"/><path fill="#bf332b" d="M727.5 1187.5h3q-1.617 21-3 42c-36.691.33-73.357-.34-110-2a750 750 0 0 1-69-8c-.304-.65-.637-1.32-1-2 1.928-13.16 3.594-26.33 5-39.5q7-1.005 14 0a78 78 0 0 0 13 2q-10.512.255-21 0c1.211.79 2.211 1.45 3 2-1.127 1.06-1.627 2.22-1.5 3.5a15.1 15.1 0 0 1 4.5-1.5c-1.211-.89-1.211-1.73 0-2.5a61 61 0 0 0 16.5 2c5.503-.52 10.67-1.19 15.5-2 6.664.45 13.33.79 20 1v4c-1.322.17-2.489-.16-3.5-1-.833.83-1.667 1.67-2.5 2.5 2.871.13 5.205 1.3 7 3.5 1.54-1.94 3.54-3.1 6-3.5 6.582-.81 13.082-.64 19.5.5a11.4 11.4 0 0 1 3.5-1.5c-.667-.33-1.333-.67-2-1 3.667-.17 7.333-.33 11-.5 23.979 1.44 47.979 2.1 72 2" style="opacity:1"/><path fill="#0b0505" d="M433.5 1205.5c15.79-.08 20.957 7.26 15.5 22-10.059 10.16-18.392 8.82-25-4q-1.96-12.585 9.5-18" style="opacity:1"/><path fill="#b5453e" d="M788.5 1167.5a1461 1461 0 0 0 1 128 613.3 613.3 0 0 1-1-128" style="opacity:1"/><path fill="#f0f3f1" d="M435.5 1210.5q15.18 1.365 8.5 15c-5.349 4.44-10.015 3.78-14-2a16.24 16.24 0 0 1 0-8c1.73-1.9 3.563-3.57 5.5-5" style="opacity:1"/><path fill="#c04f48" d="M730.5 1187.5c.635 14.22-.032 28.55-2 43-25.002.17-50.002 0-75-.5-12.19-.32-24.19-1.15-36-2.5a2027 2027 0 0 0 110 2q1.383-21 3-42" style="opacity:1"/><path fill="#b1413b" d="M631.5 1234.5a692 692 0 0 1-58-5q-9.927.27 0 1.5a7 7 0 0 0-3.5 2.5 38 38 0 0 0-5.5-5.5q-9.53-2.43-19-1.5c.834-1.25 2.167-1.91 4-2 27.389 4.14 54.722 7.47 82 10" style="opacity:1"/><path fill="#bf332c" d="M424.5 951.5a280 280 0 0 0 14.5 26 480 480 0 0 1 21.5 30.5c-9.674 9.64-17.174 20.81-22.5 33.5a386.7 386.7 0 0 0-16 68l-29 225a21525 21525 0 0 0-15 145 697 697 0 0 0-3.5 56h-169c3.663-42.62 6.663-85.29 9-128q.632-115.245.5-231c1.326-18.31 2.159-36.64 2.5-55a1420 1420 0 0 1 9-79c.404-3.79-.429-4.45-2.5-2-1.53 3.59-2.864 7.26-4 11a696 696 0 0 0-12 108c-.407 83.34-.407 166.67 0 250a2401 2401 0 0 1-8.5 126h-127a305 305 0 0 1 6-34c.364-2.19 1.364-4.03 3-5.5-.597-1.06-.93-2.23-1-3.5a429 429 0 0 0 8-46 1805 1805 0 0 1 17.5-82 19939 19939 0 0 1 55-235 527 527 0 0 1 27-77q23.07-51.092 68.5-84.5a1334 1334 0 0 1 73-43 329 329 0 0 1 22-10.5 3101 3101 0 0 0-11.5 42 1282 1282 0 0 0-12.5 58c1.699.16 3.366-.01 5-.5a70.5 70.5 0 0 0 10.5-9.5 435 435 0 0 0 14.5-23q4.157-4.183 9-7a4.93 4.93 0 0 1 .5-3 693 693 0 0 0 22.5-21q7.915 14.191 20 25.5a217 217 0 0 1 36 34q2 1.005 4 0a143.5 143.5 0 0 0-10.5-16.5 655 655 0 0 0-32-29 523 523 0 0 1-15-22q-3.315-3.727 1.5-5.5a98.4 98.4 0 0 1 14-.5q.255-1.983-1-3.5a28.7 28.7 0 0 0-8.5-2.5q-9.739 2.245-17.5 8.5a163.4 163.4 0 0 0-28.5 37.5 130.6 130.6 0 0 1-18 29q10.806-49.199 28-97c1.608-3.556 3.229-7.887 5.288-10.998 1.591-3.255 3.355-6.658 7.223-13.567 6.361-11.361 14.151-22.745 22.989-32.435a278 278 0 0 1 4 19.5 137 137 0 0 0-3.5 10.5q-3.428 29.126 17 50a278 278 0 0 0 9.5 20" style="opacity:1"/><path fill="#090202" d="M217.5 1121.5c-1.376 14.5-2.543 29.17-3.5 44-.322 80.67-.156 161.33.5 242a4130 4130 0 0 1-9 128h-6q5.907-62.88 8.5-126c-.407-83.33-.407-166.66 0-250a696 696 0 0 1 12-108c1.136-3.74 2.47-7.41 4-11 2.071-2.45 2.904-1.79 2.5 2a1420 1420 0 0 0-9 79" style="opacity:1"/><path fill="#8e3125" d="M389.5 950.5a693 693 0 0 1-22.5 21 4.93 4.93 0 0 0-.5 3q-4.843 2.817-9 7 9.826-20.886 26-37.5 1.926-1.026 3.5.5a24 24 0 0 0 2.5 6" style="opacity:1"/><path fill="#be514b" d="M217.5 1121.5c-.341 18.36-1.174 36.69-2.5 55q.132 115.755-.5 231c-.656-80.67-.822-161.33-.5-242 .957-14.83 2.124-29.5 3.5-44" style="opacity:1"/><path fill="#993d36" d="M780.5 1208.5c-.424 31.72.576 63.38 3 95a344 344 0 0 1-3.5-33c-.829-20.84-.663-41.5.5-62" style="opacity:1"/><path fill="#c0332c" d="M978.5 1161.5c1.428 6.645 4.143 21.539 4.676 24.513 1.413 7.881 1.516 10.635 3.524 23.106 16.79 108.48 20.92 216.861 12.8 326.381h-205v-35c1.763-68.41.096-136.74-5-205a1461 1461 0 0 1-1-128c2.688-30.9 10.188-60.56 22.5-89 10.922-26.69 27.755-48.85 50.5-66.5 10.826-8.58 23.159-13.575 37-15q2-2 0-4-21.676-.293-38.5 13.5a805 805 0 0 0-59.5-39.5 2510 2510 0 0 0-104-51.5q-1.624-1.298-.5-3a166.5 166.5 0 0 0 14.5-37 5205 5205 0 0 1 86 43.5q51.503 27.067 99 60c27.343 21.01 46.509 47.84 57.5 80.5a626.4 626.4 0 0 1 25.5 102M631.5 1234.5c31.973 1.7 63.973 2.36 96 2-1.682 39.56-5.349 78.9-11 118a67 67 0 0 1-14 9.5 1160 1160 0 0 1-59 28 124 124 0 0 1-19 5.5 56.3 56.3 0 0 1-17-5.5 483 483 0 0 1-62-37 57.5 57.5 0 0 1-8.5-9.5c.56-39.84 3.394-79.51 8.5-119q9.47-.93 19 1.5c2 1.62 3.833 3.46 5.5 5.5a7 7 0 0 1 3.5-2.5q-9.927-1.23 0-1.5a692 692 0 0 0 58 5" style="opacity:1"/><path fill="#0c0504" d="M412.5 1370.5c8.61-1.56 14.443 1.77 17.5 10q3.056 13.635-9.5 19.5-20.19.795-17.5-19.5c2.022-4.52 5.189-7.85 9.5-10" style="opacity:1"/><path fill="#edf0ee" d="M415.5 1375.5c6.279.28 9.612 3.61 10 10-.266 5.54-3.099 8.87-8.5 10-11.989-5.92-12.489-12.59-1.5-20" style="opacity:1"/><path fill="#b34943" d="M789.5 1295.5a2044 2044 0 0 1 5 205q.25-40.5-.5-81c-1.611-41.33-3.111-82.67-4.5-124" style="opacity:1"/><path fill="#b63b34" d="M447.5 1369.5a752 752 0 0 1-3 48l.5 10c1.152-6.27 1.818-12.6 2-19q.276 11.37 1.5 22.5-.686.615-1 1.5 2.634 2.535 1.5 6c-.667-1.33-1.333-2.67-2-4q-1.239 7.635 1 15c.556-2.1 1.056-2.26 1.5-.5a13.2 13.2 0 0 0-2 5q1.054 5.085-.5 10.5l-1-13a10.6 10.6 0 0 1-2.5-3c1.11-4.61 1.277-9.28.5-14a392.5 392.5 0 0 0-5 61l1-3q.254-10.53 1.5-21 .58 10.125 3 19.5c-1.134 1.02-.801 1.68 1 2-.753 1.49-1.586 1.65-2.5.5a31 31 0 0 0-4.5 5 11503 11503 0 0 1-5 31 5428 5428 0 0 1 14-160" style="opacity:1"/><path fill="#b4453e" d="M88.5 1446.5a429 429 0 0 1-8 46 7.9 7.9 0 0 0 1 3.5c-1.636 1.47-2.636 3.31-3 5.5a305 305 0 0 0-6 34h-1c.297-6.73 1.13-13.39 2.5-20a3609 3609 0 0 1 14.5-69" style="opacity:1"/></svg>