<svg xmlns="http://www.w3.org/2000/svg" xmlns:xlink="http://www.w3.org/1999/xlink" version="1.1" width="1024px" height="1536px" style="shape-rendering:geometricPrecision; text-rendering:geometricPrecision; image-rendering:optimizeQuality; fill-rule:evenodd; clip-rule:evenodd">
    <g/>

    <g/>
    <g><path style="opacity:1" fill="#7cd5f2" d="M 514.5,218.5 C 513.791,219.404 512.791,219.737 511.5,219.5C 490.994,218.105 470.661,219.438 450.5,223.5C 450.754,222.668 451.754,222.001 453.5,221.5C 473.685,217.617 494.019,216.617 514.5,218.5 Z"/></g>

    <g><path style="opacity:1" fill="#090607" d="M 511.5,219.5 C 534.797,222.656 556.631,230.323 577,242.5C 590.147,236.724 603.647,235.891 617.5,240C 689.03,259.872 738.863,304.039 767,372.5C 776.417,396.668 780.084,421.668 778,447.5C 777.927,451.579 776.427,454.912 773.5,457.5C 771.784,456.451 770.451,455.118 769.5,453.5C 769.313,451.436 768.813,449.436 768,447.5C 769.039,488.816 760.206,527.816 741.5,564.5C 740.522,564.811 739.855,565.478 739.5,566.5C 745.657,578.773 748.157,591.773 747,605.5C 744.2,625.079 737.033,642.746 725.5,658.5C 720.957,663.209 715.957,667.375 710.5,671C 706.394,673.202 702.06,674.702 697.5,675.5C 695.892,688.829 691.059,700.829 683,711.5C 677.249,717.588 671.249,723.255 665,728.5C 660.06,750.896 657.56,773.562 657.5,796.5C 659.099,796.232 660.432,796.566 661.5,797.5C 659.833,797.5 658.167,797.5 656.5,797.5C 656.034,789.688 655.867,782.021 656,774.5C 654.869,779.064 653.869,783.731 653,788.5C 652.821,784.975 652.321,781.641 651.5,778.5C 652.134,768.127 653.134,757.794 654.5,747.5C 660.006,721.77 665.673,695.936 671.5,670C 670.493,667.483 669.326,664.983 668,662.5C 667.333,660.167 667.333,657.833 668,655.5C 668.718,654.549 669.551,654.383 670.5,655C 675.354,667.263 684.354,671.93 697.5,669C 707.993,665.663 716.327,659.496 722.5,650.5C 738.935,628.159 743.768,603.492 737,576.5C 734.367,568.181 729.2,562.181 721.5,558.5C 712.057,553.039 702.724,553.539 693.5,560C 686.455,566.377 680.955,573.877 677,582.5C 670.691,589.698 665.691,589.032 662,580.5C 659.516,569.596 657.683,558.596 656.5,547.5C 640.433,544.15 624.433,540.483 608.5,536.5C 609.008,558.812 604.175,579.812 594,599.5C 583.877,611.104 571.044,616.938 555.5,617C 531.9,618.797 508.567,617.131 485.5,612C 472.152,607.93 462.319,599.763 456,587.5C 450.049,571.012 447.216,554.012 447.5,536.5C 444.5,535.833 441.5,535.167 438.5,534.5C 428.666,531.643 418.833,531.976 409,535.5C 406.174,554.825 399.341,572.492 388.5,588.5C 379.441,597.73 371.274,607.73 364,618.5C 360.359,625.914 359.692,633.58 362,641.5C 362.377,642.942 363.21,643.942 364.5,644.5C 366.598,648.434 369.598,651.6 373.5,654C 387.564,660.331 402.23,662.165 417.5,659.5C 418.791,659.737 419.791,659.404 420.5,658.5C 426.563,657.366 432.563,656.033 438.5,654.5C 438.714,656.144 438.38,657.644 437.5,659C 431.037,662.932 424.037,665.265 416.5,666C 400.122,668.364 384.455,666.197 369.5,659.5C 353.714,647.649 350.047,632.649 358.5,614.5C 359.837,613.685 360.837,612.518 361.5,611C 341.701,612.285 322.034,611.118 302.5,607.5C 300.914,609.173 300.247,611.173 300.5,613.5C 295.418,629.072 294.252,645.072 297,661.5C 297.964,668.949 299.464,676.282 301.5,683.5C 300.221,688.059 298.388,692.392 296,696.5C 294.993,701.111 295.66,705.445 298,709.5C 305.631,716.233 314.464,720.733 324.5,723C 338.59,726.793 352.923,728.626 367.5,728.5C 390.863,728.722 414.196,728.055 437.5,726.5C 452.345,725.184 467.011,723.517 481.5,721.5C 497.906,719.553 513.906,716.22 529.5,711.5C 540.881,708.427 551.881,704.26 562.5,699C 571.84,697.979 577.673,702.145 580,711.5C 581.015,718.798 579.348,725.464 575,731.5C 565.828,743.335 554.328,752.168 540.5,758C 521.407,766.185 501.74,772.018 481.5,775.5C 449.494,779.095 417.494,779.261 385.5,776C 380.442,774.637 375.776,772.471 371.5,769.5C 369.282,770.924 367.782,772.924 367,775.5C 364.929,786.684 368.762,795.017 378.5,800.5C 379.574,801.885 380.907,803.051 382.5,804C 388.268,806.699 394.102,809.199 400,811.5C 403.534,850.695 410.534,889.362 421,927.5C 423.742,934.564 426.575,941.564 429.5,948.5C 428.316,950.41 426.816,950.743 425,949.5C 424.536,950.094 424.369,950.761 424.5,951.5C 421.108,945.046 417.942,938.379 415,931.5C 401.381,917.584 395.715,900.917 398,881.5C 399.026,877.949 400.193,874.449 401.5,871C 400.397,864.44 399.064,857.94 397.5,851.5C 388.662,861.19 381.329,871.857 375.5,883.5C 372.073,888.016 369.407,893.016 367.5,898.5C 365.441,901.611 363.608,904.944 362,908.5C 350.537,940.367 341.204,972.701 334,1005.5C 341.278,996.606 347.278,986.94 352,976.5C 359.688,962.624 369.188,950.124 380.5,939C 385.674,934.83 391.508,931.996 398,930.5C 400.953,930.891 403.787,931.725 406.5,933C 407.337,934.011 407.67,935.178 407.5,936.5C 402.821,936.334 398.155,936.501 393.5,937C 390.29,938.182 389.79,940.015 392,942.5C 396.82,949.97 401.82,957.304 407,964.5C 417.966,973.797 428.632,983.464 439,993.5C 442.887,998.779 446.387,1004.28 449.5,1010C 448.167,1010.67 446.833,1010.67 445.5,1010C 434.761,997.259 422.761,985.926 409.5,976C 401.443,968.461 394.777,959.961 389.5,950.5C 388.406,948.641 387.573,946.641 387,944.5C 385.951,943.483 384.784,943.316 383.5,944C 372.717,955.076 364.051,967.576 357.5,981.5C 352.956,989.239 348.123,996.906 343,1004.5C 339.799,1008.04 336.299,1011.2 332.5,1014C 330.866,1014.49 329.199,1014.66 327.5,1014.5C 331.22,995.069 335.386,975.735 340,956.5C 343.744,942.441 347.577,928.441 351.5,914.5C 344.109,917.694 336.775,921.194 329.5,925C 304.705,938.564 280.372,952.897 256.5,968C 226.213,990.271 203.38,1018.44 188,1052.5C 177.018,1077.45 168.018,1103.11 161,1129.5C 142.184,1207.76 123.851,1286.09 106,1364.5C 99.5263,1391.72 93.693,1419.06 88.5,1446.5C 83.4678,1469.33 78.6345,1492.33 74,1515.5C 72.6305,1522.11 71.7971,1528.77 71.5,1535.5C 69.1667,1535.5 66.8333,1535.5 64.5,1535.5C 75.4067,1470.97 88.74,1406.97 104.5,1343.5C 116.71,1288.45 129.043,1233.45 141.5,1178.5C 146.809,1158.6 152.143,1138.6 157.5,1118.5C 166.528,1085.24 179.362,1053.57 196,1023.5C 212.409,997.09 233.576,975.257 259.5,958C 290.942,938.611 323.275,920.778 356.5,904.5C 366.689,881.274 380.022,860.108 396.5,841C 394.611,832.607 393.444,824.107 393,815.5C 379.421,811.576 369.088,803.576 362,791.5C 358.086,781.143 359.92,771.976 367.5,764C 363.506,754.861 360.673,745.361 359,735.5C 342.53,733.539 326.363,730.039 310.5,725C 301.588,721.976 294.754,716.476 290,708.5C 288.787,705.232 288.454,701.899 289,698.5C 290.839,693.33 292.672,688.164 294.5,683C 289.886,665.105 288.386,646.938 290,628.5C 290.823,621.045 292.656,613.879 295.5,607C 281.339,604.83 271.173,597.33 265,584.5C 258.948,564.107 257.948,543.441 262,522.5C 264.669,515.498 269.169,509.998 275.5,506C 283.105,503.515 290.771,501.348 298.5,499.5C 289.21,483.414 290.543,468.414 302.5,454.5C 293.827,441.143 289.827,426.477 290.5,410.5C 291.479,387.602 297.146,365.935 307.5,345.5C 303.511,347.942 299.677,351.275 296,355.5C 288.782,364.384 281.948,373.551 275.5,383C 274.216,383.684 273.049,383.517 272,382.5C 271.333,379.833 271.333,377.167 272,374.5C 279.463,348.234 292.129,324.901 310,304.5C 318.699,294.635 327.866,285.301 337.5,276.5C 370.676,249.414 408.342,231.747 450.5,223.5C 470.661,219.438 490.994,218.105 511.5,219.5 Z"/></g>
    <g><path style="opacity:1" fill="#ba6d24" d="M 529.5,230.5 C 536.051,231.555 542.384,233.388 548.5,236C 559.541,241.188 570.541,246.355 581.5,251.5C 581.165,250.336 581.165,249.003 581.5,247.5C 594.827,243.688 608.16,243.855 621.5,248C 701.536,273.365 751.036,326.865 770,408.5C 772.07,419.758 772.737,431.092 772,442.5C 767.589,429.014 761.589,416.348 754,404.5C 767.022,458.631 761.022,510.631 736,560.5C 729.775,554.135 722.275,549.969 713.5,548C 706.147,548.685 698.814,549.351 691.5,550C 682.626,547.786 673.959,545.286 665.5,542.5C 663.428,540.202 662.428,537.369 662.5,534C 660.784,511.736 661.618,489.569 665,467.5C 665.667,456.167 665.667,444.833 665,433.5C 663.746,424.484 661.579,415.818 658.5,407.5C 654.134,394.571 649.634,381.571 645,368.5C 643.894,365.274 642.061,362.607 639.5,360.5C 638.578,365.493 638.745,370.493 640,375.5C 643.064,384.86 646.231,394.193 649.5,403.5C 649.167,403.833 648.833,404.167 648.5,404.5C 626.092,391.259 608.592,373.259 596,350.5C 593.199,338.033 589.866,325.7 586,313.5C 584.39,318.655 584.057,323.988 585,329.5C 588.794,352.269 592.794,374.935 597,397.5C 578.864,382.928 565.864,364.594 558,342.5C 556.188,334.945 555.188,327.278 555,319.5C 552.008,322.125 550.342,325.458 550,329.5C 548.163,349.583 549.829,369.249 555,388.5C 530.547,369.161 517.047,343.828 514.5,312.5C 500.354,328.056 491.854,346.39 489,367.5C 488.667,373.833 488.333,380.167 488,386.5C 472.268,369.831 466.601,350.164 471,327.5C 472.262,321.715 473.928,316.048 476,310.5C 479.801,303.895 483.301,297.228 486.5,290.5C 481.695,291.132 478.528,293.799 477,298.5C 464.269,310.562 452.269,323.229 441,336.5C 431.014,352.284 423.848,369.284 419.5,387.5C 407.776,367.352 405.276,346.018 412,323.5C 414.903,315.787 417.569,308.12 420,300.5C 414.17,305.688 409.837,312.022 407,319.5C 391.279,338.271 378.612,358.938 369,381.5C 363.36,366.323 363.027,350.99 368,335.5C 370.078,328.266 372.744,321.266 376,314.5C 382.167,306.167 388.333,297.833 394.5,289.5C 392.813,288.432 391.146,288.599 389.5,290C 385.298,293.867 381.465,298.033 378,302.5C 363.226,321.274 349.226,340.607 336,360.5C 321.157,387.861 310.991,416.861 305.5,447.5C 301.725,441.344 299.225,434.677 298,427.5C 295.764,386.712 306.93,350.045 331.5,317.5C 325.364,320.769 320.031,325.603 315.5,332C 301.974,341.226 290.808,352.726 282,366.5C 286.222,351.72 292.889,338.054 302,325.5C 330.441,285.539 367.608,257.039 413.5,240C 426.33,236.042 439.33,232.876 452.5,230.5C 478.177,226.552 503.843,226.552 529.5,230.5 Z"/></g>
    <g><path style="opacity:1" fill="#af7949" d="M 529.5,230.5 C 503.843,226.552 478.177,226.552 452.5,230.5C 470.143,226.34 488.143,224.84 506.5,226C 514.435,226.874 522.102,228.374 529.5,230.5 Z"/></g>
    <g><path style="opacity:1" fill="#fccf09" d="M 645.5,410.5 C 647.216,412.447 649.383,413.781 652,414.5C 656.615,430.775 658.282,447.442 657,464.5C 652.922,489.032 651.422,513.699 652.5,538.5C 645.649,536.197 638.649,534.53 631.5,533.5C 631.48,531.857 632.147,530.524 633.5,529.5C 631.117,528.538 630.117,529.538 630.5,532.5C 622.866,531.343 615.2,530.343 607.5,529.5C 606.466,524.398 604.799,519.398 602.5,514.5C 598.998,508.005 593.664,503.672 586.5,501.5C 577.243,499.015 567.91,496.849 558.5,495C 558.833,494.667 559.167,494.333 559.5,494C 539.21,493.553 518.877,493.553 498.5,494C 492.639,494.647 486.806,495.48 481,496.5C 479.624,496.684 478.791,497.351 478.5,498.5C 458.793,500.041 448.293,510.708 447,530.5C 444.528,529.399 442.028,528.399 439.5,527.5C 438.737,526.732 437.737,526.232 436.5,526C 427.806,525.289 419.139,525.456 410.5,526.5C 407.61,511.458 399.11,502.458 385,499.5C 383.93,499.528 383.097,499.861 382.5,500.5C 380.901,500.768 379.568,500.434 378.5,499.5C 379.552,499.649 380.552,499.483 381.5,499C 365.908,497.047 350.241,496.047 334.5,496C 335.624,495.751 336.624,495.251 337.5,494.5C 335.438,492.908 335.105,491.075 336.5,489C 334.757,487.365 332.923,487.198 331,488.5C 329.629,487.419 328.129,486.585 326.5,486C 344.768,483.715 363.101,482.049 381.5,481C 385.301,480.261 388.634,478.761 391.5,476.5C 396.661,471.252 396.661,466.085 391.5,461C 384.432,457.453 376.932,455.953 369,456.5C 351.872,456.391 335.706,460.225 320.5,468C 316.973,470.362 313.973,473.196 311.5,476.5C 309.674,477.774 308.674,480.108 308.5,483.5C 308.486,485.593 309.152,487.426 310.5,489C 315.563,489.145 320.563,488.812 325.5,488C 323.182,490.046 320.682,491.88 318,493.5C 316.187,492.391 315.354,493.058 315.5,495.5C 318.493,494.865 321.493,494.699 324.5,495C 318.748,497.278 312.748,498.445 306.5,498.5C 299.633,489.539 297.8,479.539 301,468.5C 302.747,463.304 306.08,459.638 311,457.5C 316.367,412.032 333.034,371.366 361,335.5C 360.517,339.791 359.851,344.124 359,348.5C 356.628,364.599 359.795,379.433 368.5,393C 370.112,393.72 371.612,393.554 373,392.5C 379.523,371.326 389.523,351.993 403,334.5C 400.093,354.495 403.759,373.162 414,390.5C 416.471,394.504 419.971,396.504 424.5,396.5C 429.154,365.52 442.988,339.52 466,318.5C 460.366,342.031 464.033,364.031 477,384.5C 481.199,389.034 485.699,393.201 490.5,397C 492.134,397.494 493.801,397.66 495.5,397.5C 493.288,377.05 496.121,357.383 504,338.5C 506,335.167 508,331.833 510,328.5C 516.467,358.653 532.633,381.82 558.5,398C 560.134,398.494 561.801,398.66 563.5,398.5C 562.404,390.367 560.57,382.367 558,374.5C 556.907,368.132 556.24,361.799 556,355.5C 565.156,374.984 578.323,391.151 595.5,404C 598.54,406.031 601.707,406.531 605,405.5C 605.167,404.667 605.333,403.833 605.5,403C 601.971,390.651 599.471,378.151 598,365.5C 610.495,384.166 626.329,399.166 645.5,410.5 Z"/></g>
    <g/>
    <g><path style="opacity:1" fill="#b77b43" d="M 658.5,407.5 C 661.579,415.818 663.746,424.484 665,433.5C 665.667,444.833 665.667,456.167 665,467.5C 661.618,489.569 660.784,511.736 662.5,534C 662.428,537.369 663.428,540.202 665.5,542.5C 664.167,542.5 662.833,542.5 661.5,542.5C 660.573,532.023 659.906,521.523 659.5,511C 661.373,490.515 663.04,470.015 664.5,449.5C 664.416,443.648 664.083,437.815 663.5,432C 661.886,423.812 660.219,415.645 658.5,407.5 Z"/></g>
    <g><path style="opacity:1" fill="#090403" d="M 579.5,463.5 C 586.093,466.924 591.259,471.924 595,478.5C 595.667,480.833 595.667,483.167 595,485.5C 593.938,486.097 592.772,486.43 591.5,486.5C 584.44,484.985 577.44,483.318 570.5,481.5C 556.957,477.186 542.957,474.686 528.5,474C 513.833,473.667 499.167,473.333 484.5,473C 483.069,472.535 481.903,471.701 481,470.5C 479.631,465.563 480.797,461.396 484.5,458C 494.642,452.505 505.475,450.338 517,451.5C 538.643,451.462 559.477,455.462 579.5,463.5 Z"/></g>
    <g><path style="opacity:1" fill="#090503" d="M 391.5,476.5 C 387.265,477.966 382.932,479.133 378.5,480C 357,479.998 335.834,482.498 315,487.5C 313.019,487.371 311.353,486.704 310,485.5C 309.749,482.406 310.249,479.406 311.5,476.5C 313.973,473.196 316.973,470.362 320.5,468C 335.706,460.225 351.872,456.391 369,456.5C 376.932,455.953 384.432,457.453 391.5,461C 396.661,466.085 396.661,471.252 391.5,476.5 Z"/></g>
    <g><path style="opacity:1" fill="#eddb3b" d="M 579.5,463.5 C 559.477,455.462 538.643,451.462 517,451.5C 505.475,450.338 494.642,452.505 484.5,458C 480.797,461.396 479.631,465.563 481,470.5C 481.903,471.701 483.069,472.535 484.5,473C 499.167,473.333 513.833,473.667 528.5,474C 542.957,474.686 556.957,477.186 570.5,481.5C 542.443,475.745 514.109,473.579 485.5,475C 482.417,474.214 480.251,472.381 479,469.5C 478.669,465.473 479.002,461.473 480,457.5C 480.669,460.028 481.502,460.028 482.5,457.5C 482.167,456.833 481.833,456.167 481.5,455.5C 512.96,446.79 543.96,448.29 574.5,460C 576.584,460.697 578.251,461.864 579.5,463.5 Z"/></g>
    <g><path style="opacity:1" fill="#b9712b" d="M 362.5,462.5 C 370.656,462.009 378.656,462.842 386.5,465C 390.595,468.005 390.261,470.671 385.5,473C 372.212,474.172 358.879,475.172 345.5,476C 336.025,477.128 326.692,478.962 317.5,481.5C 317.167,481.167 316.833,480.833 316.5,480.5C 321.459,474.347 327.792,470.18 335.5,468C 344.505,465.504 353.505,463.671 362.5,462.5 Z"/></g>
    <g><path style="opacity:1" fill="#b76e28" d="M 503.5,457.5 C 528.414,455.819 552.414,459.653 575.5,469C 581.259,471.876 586.259,475.709 590.5,480.5C 590.167,480.833 589.833,481.167 589.5,481.5C 556.09,469.532 521.757,465.365 486.5,469C 485.633,466.684 486.299,464.684 488.5,463C 493.34,460.386 498.34,458.553 503.5,457.5 Z"/></g>
    <g><path style="opacity:1" fill="#ead83b" d="M 645.5,410.5 C 648.05,411.358 650.55,412.358 653,413.5C 658.184,430.791 659.851,448.457 658,466.5C 654.426,491.07 653.592,515.736 655.5,540.5C 639.378,536.813 623.378,533.146 607.5,529.5C 615.2,530.343 622.866,531.343 630.5,532.5C 630.117,529.538 631.117,528.538 633.5,529.5C 632.147,530.524 631.48,531.857 631.5,533.5C 638.649,534.53 645.649,536.197 652.5,538.5C 651.422,513.699 652.922,489.032 657,464.5C 658.282,447.442 656.615,430.775 652,414.5C 649.383,413.781 647.216,412.447 645.5,410.5 Z"/></g>
    <g><path style="opacity:1" fill="#f4d72d" d="M 311.5,476.5 C 310.249,479.406 309.749,482.406 310,485.5C 311.353,486.704 313.019,487.371 315,487.5C 335.834,482.498 357,479.998 378.5,480C 382.932,479.133 387.265,477.966 391.5,476.5C 388.634,478.761 385.301,480.261 381.5,481C 363.101,482.049 344.768,483.715 326.5,486C 328.129,486.585 329.629,487.419 331,488.5C 332.923,487.198 334.757,487.365 336.5,489C 335.105,491.075 335.438,492.908 337.5,494.5C 336.624,495.251 335.624,495.751 334.5,496C 350.241,496.047 365.908,497.047 381.5,499C 380.552,499.483 379.552,499.649 378.5,499.5C 355.674,496.969 332.84,496.969 310,499.5C 308.615,499.486 307.449,499.152 306.5,498.5C 312.748,498.445 318.748,497.278 324.5,495C 321.493,494.699 318.493,494.865 315.5,495.5C 315.354,493.058 316.187,492.391 318,493.5C 320.682,491.88 323.182,490.046 325.5,488C 320.563,488.812 315.563,489.145 310.5,489C 309.152,487.426 308.486,485.593 308.5,483.5C 308.674,480.108 309.674,477.774 311.5,476.5 Z"/></g>
    <g><path style="opacity:1" fill="#eedc3a" d="M 602.5,514.5 C 598.95,510.786 594.95,507.619 590.5,505C 567.793,497.525 544.459,494.025 520.5,494.5C 506.332,494.307 492.332,495.641 478.5,498.5C 478.791,497.351 479.624,496.684 481,496.5C 486.806,495.48 492.639,494.647 498.5,494C 518.877,493.553 539.21,493.553 559.5,494C 559.167,494.333 558.833,494.667 558.5,495C 567.91,496.849 577.243,499.015 586.5,501.5C 593.664,503.672 598.998,508.005 602.5,514.5 Z"/></g>
    <g><path style="opacity:1" fill="#fcce05" d="M 584.5,510.5 C 588.774,513.121 592.774,516.287 596.5,520C 595.692,520.308 595.025,520.808 594.5,521.5C 595.472,523.305 596.639,524.972 598,526.5C 599.498,536.455 599.831,546.455 599,556.5C 598.56,558.076 597.727,559.41 596.5,560.5C 597.393,563.084 597.726,565.751 597.5,568.5C 593.921,568.766 593.587,570.099 596.5,572.5C 595.758,574.35 594.758,575.016 593.5,574.5C 594.544,576.768 594.711,579.101 594,581.5C 592.242,582.252 590.075,583.086 587.5,584C 586.663,585.011 586.33,586.178 586.5,587.5C 585.07,587.579 583.736,587.246 582.5,586.5C 580.436,588.261 578.269,588.595 576,587.5C 574.266,588.249 572.433,588.749 570.5,589C 571.253,590.487 572.086,590.654 573,589.5C 575.299,591.536 577.799,591.869 580.5,590.5C 581.192,591.025 581.692,591.692 582,592.5C 582.718,591.549 583.551,591.383 584.5,592C 584.822,594.61 584.156,597.11 582.5,599.5C 580.058,599.119 579.391,599.786 580.5,601.5C 576.639,604.4 572.305,606.233 567.5,607C 550.25,609.419 532.917,610.086 515.5,609C 512.314,608.601 509.314,607.768 506.5,606.5C 501.636,607.53 496.969,606.863 492.5,604.5C 495.433,602.262 495.099,601.262 491.5,601.5C 491.5,602.5 491.5,603.5 491.5,604.5C 487.951,604.561 484.618,603.727 481.5,602C 480.874,601.25 480.374,600.416 480,599.5C 478.989,600.337 477.822,600.67 476.5,600.5C 470.671,598.091 466.337,594.091 463.5,588.5C 464.043,588.44 464.376,588.107 464.5,587.5C 456.028,567.297 453.195,546.297 456,524.5C 457.121,519.592 459.287,515.259 462.5,511.5C 482.368,504.753 502.868,501.753 524,502.5C 544.52,502.724 564.686,505.39 584.5,510.5 Z"/></g>
    <g><path style="opacity:1" fill="#ecdd3d" d="M 395.5,546.5 C 397.335,547.122 398.502,548.456 399,550.5C 403.247,540.178 403.247,529.844 399,519.5C 398.333,518.167 397.667,518.167 397,519.5C 396.308,515.138 393.808,512.304 389.5,511C 380.787,507.951 371.787,506.284 362.5,506C 345.128,505.251 327.794,505.751 310.5,507.5C 309.111,517.608 308.111,527.775 307.5,538C 307.525,540.929 308.191,543.429 309.5,545.5C 305.908,550.686 304.575,549.686 305.5,542.5C 305.901,530.347 307.401,518.347 310,506.5C 321.223,504.982 332.557,504.316 344,504.5C 357.995,503.925 371.828,505.091 385.5,508C 398.166,511.984 404.166,520.651 403.5,534C 403.575,541.053 402.408,547.886 400,554.5C 398.223,551.941 396.723,549.274 395.5,546.5 Z"/></g>
    <g><path style="opacity:1" fill="#f3e846" d="M 584.5,510.5 C 564.686,505.39 544.52,502.724 524,502.5C 502.868,501.753 482.368,504.753 462.5,511.5C 466.838,508.099 471.838,505.932 477.5,505C 505.438,500.715 533.438,500.381 561.5,504C 569.596,505.103 577.263,507.27 584.5,510.5 Z"/></g>
    <g><path style="opacity:1" fill="#fccf09" d="M 395.5,546.5 C 384.277,536.726 371.11,532.392 356,533.5C 339.328,533.264 323.828,537.264 309.5,545.5C 308.191,543.429 307.525,540.929 307.5,538C 308.111,527.775 309.111,517.608 310.5,507.5C 327.794,505.751 345.128,505.251 362.5,506C 371.787,506.284 380.787,507.951 389.5,511C 393.808,512.304 396.308,515.138 397,519.5C 397.667,518.167 398.333,518.167 399,519.5C 403.247,529.844 403.247,540.178 399,550.5C 398.502,548.456 397.335,547.122 395.5,546.5 Z"/></g>
    <g><path style="opacity:1" fill="#74cae7" d="M 769.5,453.5 C 768.792,467.509 767.626,481.509 766,495.5C 762.264,520.217 754.097,543.217 741.5,564.5C 760.206,527.816 769.039,488.816 768,447.5C 768.813,449.436 769.313,451.436 769.5,453.5 Z"/></g>
    <g><path style="opacity:1" fill="#58bff1" d="M 294.5,507.5 C 297.167,507.5 299.833,507.5 302.5,507.5C 300.678,517.411 299.678,527.411 299.5,537.5C 288.725,535.678 278.059,533.345 267.5,530.5C 268.155,524.024 270.822,518.524 275.5,514C 281.595,510.764 287.928,508.597 294.5,507.5 Z"/></g>
    <g><path style="opacity:1" fill="#f5e946" d="M 382.5,500.5 C 383.097,499.861 383.93,499.528 385,499.5C 399.11,502.458 407.61,511.458 410.5,526.5C 419.139,525.456 427.806,525.289 436.5,526C 437.737,526.232 438.737,526.732 439.5,527.5C 429.552,525.89 419.719,526.223 410,528.5C 407.355,512.689 398.188,503.355 382.5,500.5 Z"/></g>
    <g><path style="opacity:1" fill="#eede3c" d="M 564.5,537.5 C 542.186,529.713 519.519,528.546 496.5,534C 490.917,535.464 485.917,537.964 481.5,541.5C 482.031,539.376 483.365,537.876 485.5,537C 497.586,531.682 510.253,528.849 523.5,528.5C 534.141,529.664 544.807,530.497 555.5,531C 553.065,532.003 553.398,532.503 556.5,532.5C 557.772,532.43 558.938,532.097 560,531.5C 560.617,532.449 560.451,533.282 559.5,534C 561.584,534.697 563.251,535.864 564.5,537.5 Z"/></g>
    <g><path style="opacity:1" fill="#0a0705" d="M 564.5,537.5 C 572.222,541.556 577.889,547.556 581.5,555.5C 583.875,568.9 579.542,579.4 568.5,587C 564.107,588.956 559.774,590.789 555.5,592.5C 534.621,596.951 513.954,596.118 493.5,590C 475.263,583.126 468.43,570.293 473,551.5C 474.611,547.725 477.111,544.725 480.5,542.5C 481.167,542.5 481.5,542.167 481.5,541.5C 485.917,537.964 490.917,535.464 496.5,534C 519.519,528.546 542.186,529.713 564.5,537.5 Z"/></g>
    <g><path style="opacity:1" fill="#f0dd38" d="M 438.5,534.5 C 430.826,534.334 423.159,534.5 415.5,535C 414.128,535.402 412.795,535.902 411.5,536.5C 407.281,551.981 402.448,566.981 397,581.5C 396.667,581.167 396.333,580.833 396,580.5C 393.725,583.39 391.225,586.056 388.5,588.5C 399.341,572.492 406.174,554.825 409,535.5C 418.833,531.976 428.666,531.643 438.5,534.5 Z"/></g>
    <g><path style="opacity:1" fill="#fdcf08" d="M 438.5,534.5 C 441.5,535.167 444.5,535.833 447.5,536.5C 447.216,554.012 450.049,571.012 456,587.5C 462.319,599.763 472.152,607.93 485.5,612C 508.567,617.131 531.9,618.797 555.5,617C 571.044,616.938 583.877,611.104 594,599.5C 604.175,579.812 609.008,558.812 608.5,536.5C 624.433,540.483 640.433,544.15 656.5,547.5C 657.683,558.596 659.516,569.596 662,580.5C 665.691,589.032 670.691,589.698 677,582.5C 680.955,573.877 686.455,566.377 693.5,560C 702.724,553.539 712.057,553.039 721.5,558.5C 724.115,560.589 726.948,563.256 730,566.5C 738.952,581.494 741.285,597.494 737,614.5C 736.333,615.833 735.667,615.833 735,614.5C 734.626,615.416 734.126,616.25 733.5,617C 734.578,617.674 735.245,618.674 735.5,620C 733.288,629.138 729.622,637.638 724.5,645.5C 723.284,646.096 721.951,646.263 720.5,646C 722.037,647.11 722.703,648.61 722.5,650.5C 716.327,659.496 707.993,665.663 697.5,669C 684.354,671.93 675.354,667.263 670.5,655C 669.551,654.383 668.718,654.549 668,655.5C 667.333,657.833 667.333,660.167 668,662.5C 669.326,664.983 670.493,667.483 671.5,670C 665.673,695.936 660.006,721.77 654.5,747.5C 652.027,756.872 650.527,766.538 650,776.5C 649.833,796.508 649.333,816.508 648.5,836.5C 645.845,834.98 645.178,835.48 646.5,838C 643.274,839.612 642.941,841.445 645.5,843.5C 612.982,882.195 574.648,913.695 530.5,938C 518.18,946.085 506.68,955.251 496,965.5C 485.615,977.712 475.448,990.046 465.5,1002.5C 452.001,985.504 440.001,967.504 429.5,948.5C 426.575,941.564 423.742,934.564 421,927.5C 410.534,889.362 403.534,850.695 400,811.5C 394.102,809.199 388.268,806.699 382.5,804C 380.907,803.051 379.574,801.885 378.5,800.5C 376.539,798.037 374.372,795.703 372,793.5C 371.316,792.216 371.483,791.049 372.5,790C 371.234,789.691 370.067,789.191 369,788.5C 368.5,786.5 368,784.5 367.5,782.5C 368.167,781.5 368.833,780.5 369.5,779.5C 367.918,776.25 368.585,773.583 371.5,771.5C 378.544,775.903 386.21,778.403 394.5,779C 416.833,779.667 439.167,779.667 461.5,779C 469.241,778.561 476.908,777.561 484.5,776C 483.552,775.517 482.552,775.351 481.5,775.5C 501.74,772.018 521.407,766.185 540.5,758C 554.328,752.168 565.828,743.335 575,731.5C 579.348,725.464 581.015,718.798 580,711.5C 577.673,702.145 571.84,697.979 562.5,699C 551.881,704.26 540.881,708.427 529.5,711.5C 512.524,714.798 495.524,717.964 478.5,721C 479.448,721.483 480.448,721.649 481.5,721.5C 467.011,723.517 452.345,725.184 437.5,726.5C 434.518,725.835 431.352,725.502 428,725.5C 407.679,726.613 387.512,727.613 367.5,728.5C 352.923,728.626 338.59,726.793 324.5,723C 314.464,720.733 305.631,716.233 298,709.5C 295.66,705.445 294.993,701.111 296,696.5C 298.388,692.392 300.221,688.059 301.5,683.5C 299.464,676.282 297.964,668.949 297,661.5C 294.252,645.072 295.418,629.072 300.5,613.5C 301.379,611.77 302.712,610.437 304.5,609.5C 322.767,611.488 340.767,613.155 358.5,614.5C 350.047,632.649 353.714,647.649 369.5,659.5C 369.369,660.376 369.702,661.043 370.5,661.5C 393.418,671.214 416.085,670.714 438.5,660C 441.673,656.168 440.839,654.001 436,653.5C 430.57,654.643 425.404,656.31 420.5,658.5C 419.791,659.404 418.791,659.737 417.5,659.5C 410.023,659.405 402.356,659.238 394.5,659C 382.657,657.576 372.657,652.743 364.5,644.5C 363.117,641.139 362.117,637.639 361.5,634C 362.412,630.184 363.246,626.351 364,622.5C 369.043,611.778 376.043,602.445 385,594.5C 386.421,592.595 387.588,590.595 388.5,588.5C 391.225,586.056 393.725,583.39 396,580.5C 396.333,580.833 396.667,581.167 397,581.5C 402.448,566.981 407.281,551.981 411.5,536.5C 412.795,535.902 414.128,535.402 415.5,535C 423.159,534.5 430.826,534.334 438.5,534.5 Z"/></g>
    <g><path style="opacity:1" fill="#fafbf8" d="M 509.5,536.5 C 524.347,535.683 539.014,536.85 553.5,540C 560.659,541.827 566.826,545.327 572,550.5C 580.514,566.945 576.014,578.445 558.5,585C 537.063,591.218 515.73,590.885 494.5,584C 479.214,578.263 474.047,567.763 479,552.5C 480.833,549.333 483.333,546.833 486.5,545C 493.88,541.044 501.547,538.211 509.5,536.5 Z"/></g>
    <g><path style="opacity:1" fill="#fbfcf8" d="M 342.5,539.5 C 352.883,539.162 363.216,539.662 373.5,541C 383.748,543.266 390.915,549.099 395,558.5C 395.667,560.833 395.667,563.167 395,565.5C 391.877,571.582 388.377,577.415 384.5,583C 378.188,586.326 371.521,588.66 364.5,590C 354.167,590.667 343.833,590.667 333.5,590C 324.582,588.81 316.749,585.31 310,579.5C 305.113,571.755 304.447,563.755 308,555.5C 317.901,546.594 329.401,541.261 342.5,539.5 Z"/></g>
    <g xmlns="http://www.w3.org/2000/svg" id="eyes">
        <path xmlns="http://www.w3.org/2000/svg" style="opacity:1" fill="#040404" d="M 358.5,550.5 C 369.3,550.469 373.8,555.802 372,566.5C 367.313,572.935 361.479,574.102 354.5,570C 348.354,561.896 349.687,555.396 358.5,550.5 Z"/>
        <path xmlns="http://www.w3.org/2000/svg" style="opacity:1" fill="#040404" d="M 527.5,549.5 C 539.702,549.192 544.202,554.859 541,566.5C 533.54,573.589 526.873,572.923 521,564.5C 519.366,557.775 521.532,552.775 527.5,549.5 Z"/>
    </g>
    <g><path style="opacity:1" fill="#b86e27" d="M 662.5,549.5 C 671.344,551.196 680.011,553.529 688.5,556.5C 686.517,557.982 684.684,559.649 683,561.5C 679.586,567.997 675.919,574.33 672,580.5C 670.89,582.037 669.39,582.703 667.5,582.5C 665.292,571.588 663.626,560.588 662.5,549.5 Z"/></g>
    <g><path style="opacity:1" fill="#52bcf2" d="M 266.5,536.5 C 277.005,539.793 287.671,542.46 298.5,544.5C 298.334,551.508 298.5,558.508 299,565.5C 299.492,570.971 300.992,576.137 303.5,581C 301.059,587.043 299.059,593.21 297.5,599.5C 286.488,598.745 277.988,593.745 272,584.5C 265.794,569.009 263.96,553.009 266.5,536.5 Z"/></g>
    <g><path style="opacity:1" fill="#e1d43b" d="M 462.5,511.5 C 459.287,515.259 457.121,519.592 456,524.5C 453.195,546.297 456.028,567.297 464.5,587.5C 464.376,588.107 464.043,588.44 463.5,588.5C 454.602,567.32 451.769,545.32 455,522.5C 456.067,517.652 458.567,513.985 462.5,511.5 Z"/></g>
    <g><path style="opacity:1" fill="#0e0a05" d="M 715.5,626.5 C 713.91,628.424 712.076,628.757 710,627.5C 709.667,620.167 709.333,612.833 709,605.5C 708.152,602.302 706.652,599.469 704.5,597C 703.833,596.333 703.167,596.333 702.5,597C 701.213,598.41 700.046,599.91 699,601.5C 695.628,609.076 692.128,616.576 688.5,624C 686.393,624.854 685.059,624.188 684.5,622C 685.274,618.728 686.274,615.561 687.5,612.5C 690.891,601.616 696.558,592.116 704.5,584C 707.934,581.565 711.6,579.565 715.5,578C 718.562,577.259 721.562,577.425 724.5,578.5C 725.731,579.651 725.731,580.817 724.5,582C 717.464,582.185 711.797,585.018 707.5,590.5C 714.026,597.066 717.026,605.066 716.5,614.5C 716.261,618.516 715.928,622.516 715.5,626.5 Z"/></g>
    <g><path style="opacity:1" fill="#eee040" d="M 480.5,542.5 C 477.111,544.725 474.611,547.725 473,551.5C 468.43,570.293 475.263,583.126 493.5,590C 513.954,596.118 534.621,596.951 555.5,592.5C 551.578,594.718 547.244,595.885 542.5,596C 527.679,597.199 513.012,596.199 498.5,593C 474.78,586.192 465.78,571.025 471.5,547.5C 473.687,545.433 476.021,543.6 478.5,542C 479.437,541.308 480.103,541.475 480.5,542.5 Z"/></g>
    <g><path style="opacity:1" fill="#e8d93a" d="M 581.5,555.5 C 585.55,576.322 576.883,588.655 555.5,592.5C 559.774,590.789 564.107,588.956 568.5,587C 579.542,579.4 583.875,568.9 581.5,555.5 Z"/></g>
    <g><path style="opacity:1" fill="#f2d52a" d="M 584.5,510.5 C 592.851,512.685 598.018,518.019 600,526.5C 603.126,549.83 599.793,572.164 590,593.5C 584.203,602.32 576.036,607.487 565.5,609C 539.31,612.946 513.31,611.946 487.5,606C 483.462,604.648 479.795,602.814 476.5,600.5C 477.822,600.67 478.989,600.337 480,599.5C 480.374,600.416 480.874,601.25 481.5,602C 484.618,603.727 487.951,604.561 491.5,604.5C 491.5,603.5 491.5,602.5 491.5,601.5C 495.099,601.262 495.433,602.262 492.5,604.5C 496.969,606.863 501.636,607.53 506.5,606.5C 509.314,607.768 512.314,608.601 515.5,609C 532.917,610.086 550.25,609.419 567.5,607C 572.305,606.233 576.639,604.4 580.5,601.5C 579.391,599.786 580.058,599.119 582.5,599.5C 584.156,597.11 584.822,594.61 584.5,592C 583.551,591.383 582.718,591.549 582,592.5C 581.692,591.692 581.192,591.025 580.5,590.5C 577.799,591.869 575.299,591.536 573,589.5C 572.086,590.654 571.253,590.487 570.5,589C 572.433,588.749 574.266,588.249 576,587.5C 578.269,588.595 580.436,588.261 582.5,586.5C 583.736,587.246 585.07,587.579 586.5,587.5C 586.33,586.178 586.663,585.011 587.5,584C 590.075,583.086 592.242,582.252 594,581.5C 594.711,579.101 594.544,576.768 593.5,574.5C 594.758,575.016 595.758,574.35 596.5,572.5C 593.587,570.099 593.921,568.766 597.5,568.5C 597.726,565.751 597.393,563.084 596.5,560.5C 597.727,559.41 598.56,558.076 599,556.5C 599.831,546.455 599.498,536.455 598,526.5C 596.639,524.972 595.472,523.305 594.5,521.5C 595.025,520.808 595.692,520.308 596.5,520C 592.774,516.287 588.774,513.121 584.5,510.5 Z"/></g>
    <g><path style="opacity:1" fill="#f5d31f" d="M 308.5,586.5 C 312.34,588.811 316.34,590.977 320.5,593C 338.823,597.31 357.156,597.644 375.5,594C 373.089,598.08 369.756,601.08 365.5,603C 348.165,604.98 330.831,604.98 313.5,603C 309.963,602.855 306.629,602.022 303.5,600.5C 305.175,595.805 306.842,591.138 308.5,586.5 Z"/></g>
    <g><path style="opacity:1" fill="#eedf44" d="M 721.5,558.5 C 729.2,562.181 734.367,568.181 737,576.5C 743.768,603.492 738.935,628.159 722.5,650.5C 722.703,648.61 722.037,647.11 720.5,646C 721.951,646.263 723.284,646.096 724.5,645.5C 729.622,637.638 733.288,629.138 735.5,620C 735.245,618.674 734.578,617.674 733.5,617C 734.126,616.25 734.626,615.416 735,614.5C 735.667,615.833 736.333,615.833 737,614.5C 741.285,597.494 738.952,581.494 730,566.5C 726.948,563.256 724.115,560.589 721.5,558.5 Z"/></g>
    <g><path style="opacity:1" fill="#eddf3f" d="M 388.5,588.5 C 387.588,590.595 386.421,592.595 385,594.5C 376.043,602.445 369.043,611.778 364,622.5C 363.246,626.351 362.412,630.184 361.5,634C 362.117,637.639 363.117,641.139 364.5,644.5C 363.21,643.942 362.377,642.942 362,641.5C 359.692,633.58 360.359,625.914 364,618.5C 371.274,607.73 379.441,597.73 388.5,588.5 Z"/></g>
    <g><path style="opacity:1" fill="#f1e740" d="M 358.5,614.5 C 340.767,613.155 322.767,611.488 304.5,609.5C 302.712,610.437 301.379,611.77 300.5,613.5C 300.247,611.173 300.914,609.173 302.5,607.5C 322.034,611.118 341.701,612.285 361.5,611C 360.837,612.518 359.837,613.685 358.5,614.5 Z"/></g>
    <g><path style="opacity:1" fill="#f3e23f" d="M 715.5,626.5 C 715.657,627.873 715.49,629.207 715,630.5C 712.43,629.991 710.097,628.991 708,627.5C 708.424,621.195 708.424,614.862 708,608.5C 707.422,605.097 706.255,601.93 704.5,599C 703.833,598.333 703.167,598.333 702.5,599C 697.975,607.579 693.641,616.246 689.5,625C 685.798,626.393 683.798,625.226 683.5,621.5C 683.714,617.804 685.047,614.804 687.5,612.5C 686.274,615.561 685.274,618.728 684.5,622C 685.059,624.188 686.393,624.854 688.5,624C 692.128,616.576 695.628,609.076 699,601.5C 700.046,599.91 701.213,598.41 702.5,597C 703.167,596.333 703.833,596.333 704.5,597C 706.652,599.469 708.152,602.302 709,605.5C 709.333,612.833 709.667,620.167 710,627.5C 712.076,628.757 713.91,628.424 715.5,626.5 Z"/></g>

    <g><path style="opacity:1" fill="#74cceb" d="M 741.5,564.5 C 743.573,570.343 745.407,576.343 747,582.5C 751.26,611.203 744.093,636.537 725.5,658.5C 737.033,642.746 744.2,625.079 747,605.5C 748.157,591.773 745.657,578.773 739.5,566.5C 739.855,565.478 740.522,564.811 741.5,564.5 Z"/></g>
    <g><path style="opacity:1" fill="#ebdd44" d="M 364.5,644.5 C 372.657,652.743 382.657,657.576 394.5,659C 402.356,659.238 410.023,659.405 417.5,659.5C 402.23,662.165 387.564,660.331 373.5,654C 369.598,651.6 366.598,648.434 364.5,644.5 Z"/></g>
    <g><path style="opacity:1" fill="#eee13b" d="M 369.5,659.5 C 384.455,666.197 400.122,668.364 416.5,666C 424.037,665.265 431.037,662.932 437.5,659C 438.38,657.644 438.714,656.144 438.5,654.5C 432.563,656.033 426.563,657.366 420.5,658.5C 425.404,656.31 430.57,654.643 436,653.5C 440.839,654.001 441.673,656.168 438.5,660C 416.085,670.714 393.418,671.214 370.5,661.5C 369.702,661.043 369.369,660.376 369.5,659.5 Z"/></g>
    <g><path style="opacity:1" fill="#0c0805" d="M 566.5,675.5 C 590.115,681.424 601.448,696.424 600.5,720.5C 599.311,721.429 597.978,721.762 596.5,721.5C 595.833,701.146 585.833,687.48 566.5,680.5C 565.334,678.833 565.334,677.166 566.5,675.5 Z"/></g>
    <g><path style="opacity:1" fill="#ad6527" d="M 677.5,673.5 C 681.634,675.283 685.967,676.283 690.5,676.5C 687.717,692.731 680.217,706.397 668,717.5C 670.519,702.751 673.685,688.084 677.5,673.5 Z"/></g>
    <g><path style="opacity:1" fill="#fafbf7" d="M 564.5,704.5 C 568.923,704.744 571.756,707.078 573,711.5C 573.844,722.023 570.011,730.523 561.5,737C 555.509,741.664 549.176,745.83 542.5,749.5C 539.193,738.943 536.193,728.277 533.5,717.5C 544.335,714.118 554.668,709.785 564.5,704.5 Z"/></g>
    <g><path style="opacity:1" fill="#eadc3e" d="M 529.5,711.5 C 513.906,716.22 497.906,719.553 481.5,721.5C 480.448,721.649 479.448,721.483 478.5,721C 495.524,717.964 512.524,714.798 529.5,711.5 Z"/></g>
    <g><path style="opacity:1" fill="#fafbf8" d="M 526.5,718.5 C 527.497,718.47 528.164,718.97 528.5,720C 531.884,730.699 534.384,741.533 536,752.5C 523.832,757.723 511.332,762.056 498.5,765.5C 495.503,752.846 492.503,740.18 489.5,727.5C 502.115,725.116 514.448,722.116 526.5,718.5 Z"/></g>
    <g><path style="opacity:1" fill="#f5ec45" d="M 437.5,726.5 C 414.196,728.055 390.863,728.722 367.5,728.5C 387.512,727.613 407.679,726.613 428,725.5C 431.352,725.502 434.518,725.835 437.5,726.5 Z"/></g>
    <g><path style="opacity:1" fill="#fafbf8" d="M 482.5,727.5 C 483.931,727.881 484.764,728.881 485,730.5C 487.5,741.833 490,753.167 492.5,764.5C 492.167,765.167 491.833,765.833 491.5,766.5C 478.315,769.219 464.982,770.886 451.5,771.5C 449.059,758.522 446.726,745.522 444.5,732.5C 457.382,731.46 470.048,729.793 482.5,727.5 Z"/></g>
    <g><path style="opacity:1" fill="#f9faf7" d="M 436.5,732.5 C 437.75,732.577 438.583,733.244 439,734.5C 441.345,746.878 443.845,759.211 446.5,771.5C 434.18,772.666 421.847,772.833 409.5,772C 405.668,759.671 401.335,747.505 396.5,735.5C 410.011,734.806 423.344,733.806 436.5,732.5 Z"/></g>
    <g><path style="opacity:1" fill="#fafbf8" d="M 364.5,735.5 C 373.525,735.168 382.525,735.502 391.5,736.5C 395.697,747.758 399.697,759.091 403.5,770.5C 394.416,771.654 385.75,770.154 377.5,766C 375.291,764.127 373.458,761.96 372,759.5C 368.791,751.706 366.291,743.706 364.5,735.5 Z"/></g>
    <g><path style="opacity:1" fill="#f7e949" d="M 654.5,747.5 C 653.134,757.794 652.134,768.127 651.5,778.5C 650.173,796.318 650.173,814.151 651.5,832C 650.597,836.404 648.597,840.237 645.5,843.5C 642.941,841.445 643.274,839.612 646.5,838C 645.178,835.48 645.845,834.98 648.5,836.5C 649.333,816.508 649.833,796.508 650,776.5C 650.527,766.538 652.027,756.872 654.5,747.5 Z"/></g>
    <g><path style="opacity:1" fill="#ecdd40" d="M 481.5,775.5 C 482.552,775.351 483.552,775.517 484.5,776C 476.908,777.561 469.241,778.561 461.5,779C 439.167,779.667 416.833,779.667 394.5,779C 386.21,778.403 378.544,775.903 371.5,771.5C 368.585,773.583 367.918,776.25 369.5,779.5C 368.833,780.5 368.167,781.5 367.5,782.5C 368,784.5 368.5,786.5 369,788.5C 370.067,789.191 371.234,789.691 372.5,790C 371.483,791.049 371.316,792.216 372,793.5C 374.372,795.703 376.539,798.037 378.5,800.5C 368.762,795.017 364.929,786.684 367,775.5C 367.782,772.924 369.282,770.924 371.5,769.5C 375.776,772.471 380.442,774.637 385.5,776C 417.494,779.261 449.494,779.095 481.5,775.5 Z"/></g>
    <g><path style="opacity:1" fill="#0a0304" d="M 661.5,797.5 C 664.691,798.092 667.691,799.259 670.5,801C 674,804.5 677.5,808 681,811.5C 691.779,830.058 701.779,849.058 711,868.5C 716.75,871.625 722.584,874.625 728.5,877.5C 756.805,890.986 784.805,904.986 812.5,919.5C 832.602,931.055 852.602,942.888 872.5,955C 885.909,963.694 898.909,972.861 911.5,982.5C 933.552,1003.91 949.552,1029.24 959.5,1058.5C 966.259,1078.2 972.092,1098.2 977,1118.5C 996.341,1210.32 1007.51,1302.99 1010.5,1396.5C 1010.67,1430.85 1010,1465.19 1008.5,1499.5C 1007.5,1511.35 1006.5,1523.35 1005.5,1535.5C 1003.5,1535.5 1001.5,1535.5 999.5,1535.5C 1007.62,1425.98 1003.29,1316.98 986.5,1208.5C 984.569,1192.58 981.903,1176.91 978.5,1161.5C 972.857,1126.78 964.357,1092.78 953,1059.5C 942.009,1026.84 922.843,1000.01 895.5,979C 863.835,957.045 830.835,937.045 796.5,919C 767.927,904.214 739.26,889.714 710.5,875.5C 707.13,888.448 702.297,900.781 696,912.5C 695.251,913.635 695.417,914.635 696.5,915.5C 731.568,931.867 766.234,949.034 800.5,967C 820.935,979.298 840.768,992.464 860,1006.5C 871.216,997.305 884.049,992.805 898.5,993C 899.833,994.333 899.833,995.667 898.5,997C 884.659,998.425 872.326,1003.42 861.5,1012C 838.755,1029.65 821.922,1051.81 811,1078.5C 798.688,1106.94 791.188,1136.6 788.5,1167.5C 784.369,1210.19 784.702,1252.86 789.5,1295.5C 790.889,1336.83 792.389,1378.17 794,1419.5C 794.5,1446.5 794.667,1473.5 794.5,1500.5C 794.5,1512.17 794.5,1523.83 794.5,1535.5C 792.167,1535.5 789.833,1535.5 787.5,1535.5C 788.588,1500.84 788.754,1466.18 788,1431.5C 786.722,1388.82 785.222,1346.16 783.5,1303.5C 781.076,1271.88 780.076,1240.22 780.5,1208.5C 779.927,1154.47 791.76,1103.47 816,1055.5C 826.448,1037.88 839.614,1022.55 855.5,1009.5C 827.643,989.065 798.309,970.899 767.5,955C 742.681,943.423 718.014,931.59 693.5,919.5C 674.108,955.953 653.941,991.953 633,1027.5C 628.397,1031.22 623.564,1031.39 618.5,1028C 610.607,1023.44 603.273,1018.11 596.5,1012C 584.102,1000.27 572.435,987.938 561.5,975C 544.828,982.01 528.828,990.677 513.5,1001C 502.543,1012.41 495.376,1025.91 492,1041.5C 489.155,1053.73 486.821,1066.06 485,1078.5C 471.242,1170.71 458.908,1263.04 448,1355.5C 447.501,1360.15 447.334,1364.82 447.5,1369.5C 442.058,1422.61 437.391,1475.94 433.5,1529.5C 433.5,1531.5 433.5,1533.5 433.5,1535.5C 431.5,1535.5 429.5,1535.5 427.5,1535.5C 431.482,1484.83 435.649,1434.16 440,1383.5C 447.888,1309.28 457.555,1235.28 469,1161.5C 472.406,1131.8 476.072,1102.14 480,1072.5C 483.15,1052.56 488.484,1033.23 496,1014.5C 501.107,1006.06 507.607,998.893 515.5,993C 529.281,985.39 542.948,977.556 556.5,969.5C 550.183,959.848 541.183,955.848 529.5,957.5C 532.399,953.803 536.233,952.136 541,952.5C 545.721,952.443 549.888,953.943 553.5,957C 562.704,966.535 571.537,976.368 580,986.5C 592.731,1001.24 607.231,1013.74 623.5,1024C 625.441,1024.74 627.274,1024.58 629,1023.5C 648.587,988.661 667.92,953.661 687,918.5C 694.921,902.902 700.755,886.569 704.5,869.5C 695.098,850.359 684.931,831.692 674,813.5C 669.947,807.726 664.447,804.392 657.5,803.5C 657.334,811.174 657.5,818.841 658,826.5C 661.012,821.833 664.346,817.5 668,813.5C 668.87,814.108 669.37,814.941 669.5,816C 656.077,841.782 638.411,864.449 616.5,884C 605.794,893.709 594.794,903.042 583.5,912C 563.77,925.394 543.77,938.394 523.5,951C 502.198,967.633 484.031,987.133 469,1009.5C 455.489,1019.53 446.156,1032.53 441,1048.5C 434.997,1068.85 430.663,1089.52 428,1110.5C 410.554,1233.52 395.887,1356.85 384,1480.5C 382.598,1498.82 381.431,1517.15 380.5,1535.5C 378.5,1535.5 376.5,1535.5 374.5,1535.5C 374.915,1516.79 376.081,1498.12 378,1479.5C 382.832,1431.19 387.832,1382.86 393,1334.5C 402.667,1259.5 412.333,1184.5 422,1109.5C 425.294,1086.3 430.628,1063.63 438,1041.5C 443.326,1028.81 450.826,1017.64 460.5,1008C 453.737,997.567 446.57,987.4 439,977.5C 433.695,969.073 428.862,960.406 424.5,951.5C 424.369,950.761 424.536,950.094 425,949.5C 426.816,950.743 428.316,950.41 429.5,948.5C 440.001,967.504 452.001,985.504 465.5,1002.5C 475.448,990.046 485.615,977.712 496,965.5C 506.68,955.251 518.18,946.085 530.5,938C 574.648,913.695 612.982,882.195 645.5,843.5C 648.597,840.237 650.597,836.404 651.5,832C 650.173,814.151 650.173,796.318 651.5,778.5C 652.321,781.641 652.821,784.975 653,788.5C 653.869,783.731 654.869,779.064 656,774.5C 655.867,782.021 656.034,789.688 656.5,797.5C 658.167,797.5 659.833,797.5 661.5,797.5 Z"/></g>


    <g><path style="opacity:1" fill="#99a1a9" d="M 375.5,883.5 C 374.547,887.403 373.047,891.07 371,894.5C 370.051,896.093 368.885,897.426 367.5,898.5C 369.407,893.016 372.073,888.016 375.5,883.5 Z"/></g>
    <g><path style="opacity:1" fill="#ba4239" d="M 402.5,883.5 C 403.41,885.019 404.243,886.685 405,888.5C 406.385,897.701 408.551,906.701 411.5,915.5C 411.167,915.833 410.833,916.167 410.5,916.5C 403.701,906.449 401.034,895.449 402.5,883.5 Z"/></g>

    <g><path style="opacity:1" fill="#c0332c" d="M 780.5,1208.5 C 779.337,1229 779.171,1249.66 780,1270.5C 780.652,1281.71 781.819,1292.71 783.5,1303.5C 785.222,1346.16 786.722,1388.82 788,1431.5C 788.754,1466.18 788.588,1500.84 787.5,1535.5C 669.5,1535.5 551.5,1535.5 433.5,1535.5C 433.5,1533.5 433.5,1531.5 433.5,1529.5C 435.135,1519.45 436.802,1509.12 438.5,1498.5C 439.786,1496.71 441.286,1495.04 443,1493.5C 443.914,1494.65 444.747,1494.49 445.5,1493C 443.699,1492.68 443.366,1492.02 444.5,1491C 442.887,1484.75 441.887,1478.25 441.5,1471.5C 440.669,1478.48 440.169,1485.48 440,1492.5C 439.667,1493.5 439.333,1494.5 439,1495.5C 439.083,1474.99 440.749,1454.66 444,1434.5C 444.777,1439.22 444.61,1443.89 443.5,1448.5C 444.145,1449.65 444.978,1450.65 446,1451.5C 446.333,1455.83 446.667,1460.17 447,1464.5C 448.036,1460.89 448.203,1457.39 447.5,1454C 447.827,1452.19 448.493,1450.52 449.5,1449C 449.056,1447.24 448.556,1447.4 448,1449.5C 446.508,1444.59 446.174,1439.59 447,1434.5C 447.667,1435.83 448.333,1437.17 449,1438.5C 449.756,1436.19 449.256,1434.19 447.5,1432.5C 447.709,1431.91 448.043,1431.41 448.5,1431C 447.684,1423.58 447.184,1416.08 447,1408.5C 446.818,1414.9 446.152,1421.23 445,1427.5C 444.833,1424.17 444.667,1420.83 444.5,1417.5C 446.011,1401.55 447.011,1385.55 447.5,1369.5C 447.334,1364.82 447.501,1360.15 448,1355.5C 458.908,1263.04 471.242,1170.71 485,1078.5C 486.821,1066.06 489.155,1053.73 492,1041.5C 495.376,1025.91 502.543,1012.41 513.5,1001C 528.828,990.677 544.828,982.01 561.5,975C 572.435,987.938 584.102,1000.27 596.5,1012C 603.273,1018.11 610.607,1023.44 618.5,1028C 623.564,1031.39 628.397,1031.22 633,1027.5C 653.941,991.953 674.108,955.953 693.5,919.5C 718.014,931.59 742.681,943.423 767.5,955C 798.309,970.899 827.643,989.065 855.5,1009.5C 839.614,1022.55 826.448,1037.88 816,1055.5C 791.76,1103.47 779.927,1154.47 780.5,1208.5 Z"/></g>

    <g><path style="opacity:1" fill="#0d0302" d="M 625.5,1175.5 C 658.665,1177.78 691.998,1179.78 725.5,1181.5C 735.499,1182.11 739.166,1187.44 736.5,1197.5C 733.541,1250.34 728.708,1303.01 722,1355.5C 719.143,1360.02 715.31,1363.52 710.5,1366C 688.21,1377.43 665.543,1388.1 642.5,1398C 634.903,1401.87 626.903,1403.2 618.5,1402C 590.21,1390.36 563.877,1375.36 539.5,1357C 536.238,1354.41 533.738,1351.24 532,1347.5C 531.206,1330.48 531.539,1313.48 533,1296.5C 537.001,1255.82 541.001,1215.16 545,1174.5C 546.633,1171.85 548.967,1170.52 552,1170.5C 576.523,1172.71 601.023,1174.37 625.5,1175.5 Z"/></g>
    <g><path style="opacity:1" fill="#ac3f39" d="M 625.5,1175.5 C 644.349,1175.69 663.182,1176.36 682,1177.5C 690.003,1177.12 697.836,1176.95 705.5,1177C 704.833,1177.33 704.167,1177.67 703.5,1178C 711.004,1178.98 718.337,1180.14 725.5,1181.5C 691.998,1179.78 658.665,1177.78 625.5,1175.5 Z"/></g>
    <g><path style="opacity:1" fill="#bf342c" d="M 427.5,1535.5 C 411.833,1535.5 396.167,1535.5 380.5,1535.5C 381.431,1517.15 382.598,1498.82 384,1480.5C 395.887,1356.85 410.554,1233.52 428,1110.5C 430.663,1089.52 434.997,1068.85 441,1048.5C 446.156,1032.53 455.489,1019.53 469,1009.5C 484.031,987.133 502.198,967.633 523.5,951C 543.77,938.394 563.77,925.394 583.5,912C 594.794,903.042 605.794,893.709 616.5,884C 638.411,864.449 656.077,841.782 669.5,816C 669.37,814.941 668.87,814.108 668,813.5C 664.346,817.5 661.012,821.833 658,826.5C 657.5,818.841 657.334,811.174 657.5,803.5C 664.447,804.392 669.947,807.726 674,813.5C 684.931,831.692 695.098,850.359 704.5,869.5C 700.755,886.569 694.921,902.902 687,918.5C 667.92,953.661 648.587,988.661 629,1023.5C 627.274,1024.58 625.441,1024.74 623.5,1024C 607.231,1013.74 592.731,1001.24 580,986.5C 571.537,976.368 562.704,966.535 553.5,957C 549.888,953.943 545.721,952.443 541,952.5C 536.233,952.136 532.399,953.803 529.5,957.5C 541.183,955.848 550.183,959.848 556.5,969.5C 542.948,977.556 529.281,985.39 515.5,993C 507.607,998.893 501.107,1006.06 496,1014.5C 488.484,1033.23 483.15,1052.56 480,1072.5C 476.072,1102.14 472.406,1131.8 469,1161.5C 457.555,1235.28 447.888,1309.28 440,1383.5C 435.649,1434.16 431.482,1484.83 427.5,1535.5 Z"/></g>
    <g><path style="opacity:1" fill="#0b0606" d="M 455.5,1046.5 C 469.606,1044.44 476.106,1050.44 475,1064.5C 471.213,1072.31 465.046,1075.81 456.5,1075C 443.846,1065.69 443.512,1056.19 455.5,1046.5 Z"/></g>
    <g><path style="opacity:1" fill="#f0f2f1" d="M 458.5,1051.5 C 464.308,1050.65 468.142,1052.99 470,1058.5C 470.529,1063.6 468.362,1067.1 463.5,1069C 455.074,1069.23 451.574,1065.06 453,1056.5C 454.73,1054.6 456.563,1052.93 458.5,1051.5 Z"/></g>
    <g><path style="opacity:1" fill="#bd3d36" d="M 727.5,1187.5 C 703.479,1187.6 679.479,1186.94 655.5,1185.5C 651.833,1185.67 648.167,1185.83 644.5,1186C 645.167,1186.33 645.833,1186.67 646.5,1187C 645.234,1187.31 644.067,1187.81 643,1188.5C 636.582,1187.36 630.082,1187.19 623.5,1188C 621.04,1188.4 619.04,1189.56 617.5,1191.5C 615.705,1189.3 613.371,1188.13 610.5,1188C 611.333,1187.17 612.167,1186.33 613,1185.5C 614.011,1186.34 615.178,1186.67 616.5,1186.5C 616.5,1185.17 616.5,1183.83 616.5,1182.5C 609.83,1182.29 603.164,1181.95 596.5,1181.5C 591.67,1182.31 586.503,1182.98 581,1183.5C 575.391,1183.58 569.891,1182.92 564.5,1181.5C 563.289,1182.27 563.289,1183.11 564.5,1184C 562.899,1184.27 561.399,1184.77 560,1185.5C 559.873,1184.22 560.373,1183.06 561.5,1182C 560.711,1181.45 559.711,1180.79 558.5,1180C 565.492,1180.17 572.492,1180.17 579.5,1180C 575.106,1179.7 570.773,1179.03 566.5,1178C 561.833,1177.33 557.167,1177.33 552.5,1178C 551.094,1191.17 549.428,1204.34 547.5,1217.5C 547.863,1218.18 548.196,1218.85 548.5,1219.5C 547.235,1218.49 546.569,1216.99 546.5,1215C 547.871,1202.16 549.204,1189.33 550.5,1176.5C 574.214,1177.6 597.881,1179.43 621.5,1182C 656.987,1183.94 692.32,1185.77 727.5,1187.5 Z"/></g>
    <g><path style="opacity:1" fill="#bf332b" d="M 727.5,1187.5 C 728.5,1187.5 729.5,1187.5 730.5,1187.5C 729.422,1201.5 728.422,1215.5 727.5,1229.5C 690.809,1229.83 654.143,1229.16 617.5,1227.5C 594.326,1225.89 571.326,1223.23 548.5,1219.5C 548.196,1218.85 547.863,1218.18 547.5,1217.5C 549.428,1204.34 551.094,1191.17 552.5,1178C 557.167,1177.33 561.833,1177.33 566.5,1178C 570.773,1179.03 575.106,1179.7 579.5,1180C 572.492,1180.17 565.492,1180.17 558.5,1180C 559.711,1180.79 560.711,1181.45 561.5,1182C 560.373,1183.06 559.873,1184.22 560,1185.5C 561.399,1184.77 562.899,1184.27 564.5,1184C 563.289,1183.11 563.289,1182.27 564.5,1181.5C 569.891,1182.92 575.391,1183.58 581,1183.5C 586.503,1182.98 591.67,1182.31 596.5,1181.5C 603.164,1181.95 609.83,1182.29 616.5,1182.5C 616.5,1183.83 616.5,1185.17 616.5,1186.5C 615.178,1186.67 614.011,1186.34 613,1185.5C 612.167,1186.33 611.333,1187.17 610.5,1188C 613.371,1188.13 615.705,1189.3 617.5,1191.5C 619.04,1189.56 621.04,1188.4 623.5,1188C 630.082,1187.19 636.582,1187.36 643,1188.5C 644.067,1187.81 645.234,1187.31 646.5,1187C 645.833,1186.67 645.167,1186.33 644.5,1186C 648.167,1185.83 651.833,1185.67 655.5,1185.5C 679.479,1186.94 703.479,1187.6 727.5,1187.5 Z"/></g>
    <g><path style="opacity:1" fill="#0b0505" d="M 433.5,1205.5 C 449.29,1205.42 454.457,1212.76 449,1227.5C 438.941,1237.66 430.608,1236.32 424,1223.5C 422.693,1215.11 425.86,1209.11 433.5,1205.5 Z"/></g>
    <g><path style="opacity:1" fill="#b5453e" d="M 788.5,1167.5 C 786.963,1210.18 787.297,1252.85 789.5,1295.5C 784.702,1252.86 784.369,1210.19 788.5,1167.5 Z"/></g>
    <g><path style="opacity:1" fill="#f0f3f1" d="M 435.5,1210.5 C 445.62,1211.41 448.453,1216.41 444,1225.5C 438.651,1229.94 433.985,1229.28 430,1223.5C 429.333,1220.83 429.333,1218.17 430,1215.5C 431.73,1213.6 433.563,1211.93 435.5,1210.5 Z"/></g>
    <g><path style="opacity:1" fill="#c04f48" d="M 730.5,1187.5 C 731.135,1201.72 730.468,1216.05 728.5,1230.5C 703.498,1230.67 678.498,1230.5 653.5,1230C 641.31,1229.68 629.31,1228.85 617.5,1227.5C 654.143,1229.16 690.809,1229.83 727.5,1229.5C 728.422,1215.5 729.422,1201.5 730.5,1187.5 Z"/></g>
    <g><path style="opacity:1" fill="#b1413b" d="M 631.5,1234.5 C 612.107,1233.65 592.773,1231.98 573.5,1229.5C 566.882,1229.68 566.882,1230.18 573.5,1231C 572.069,1231.47 570.903,1232.3 570,1233.5C 568.333,1231.46 566.5,1229.62 564.5,1228C 558.146,1226.38 551.813,1225.88 545.5,1226.5C 546.334,1225.25 547.667,1224.59 549.5,1224.5C 576.889,1228.64 604.222,1231.97 631.5,1234.5 Z"/></g>
    <g><path style="opacity:1" fill="#bf332c" d="M 424.5,951.5 C 428.862,960.406 433.695,969.073 439,977.5C 446.57,987.4 453.737,997.567 460.5,1008C 450.826,1017.64 443.326,1028.81 438,1041.5C 430.628,1063.63 425.294,1086.3 422,1109.5C 412.333,1184.5 402.667,1259.5 393,1334.5C 387.832,1382.86 382.832,1431.19 378,1479.5C 376.081,1498.12 374.915,1516.79 374.5,1535.5C 318.167,1535.5 261.833,1535.5 205.5,1535.5C 209.163,1492.88 212.163,1450.21 214.5,1407.5C 214.922,1330.67 215.088,1253.67 215,1176.5C 216.326,1158.19 217.159,1139.86 217.5,1121.5C 219.773,1094.99 222.773,1068.66 226.5,1042.5C 226.904,1038.71 226.071,1038.05 224,1040.5C 222.47,1044.09 221.136,1047.76 220,1051.5C 213.186,1087.17 209.186,1123.17 208,1159.5C 207.593,1242.84 207.593,1326.17 208,1409.5C 206.271,1451.58 203.438,1493.58 199.5,1535.5C 157.167,1535.5 114.833,1535.5 72.5,1535.5C 73.8532,1524.08 75.8532,1512.75 78.5,1501.5C 78.8644,1499.31 79.8644,1497.47 81.5,1496C 80.9032,1494.94 80.5698,1493.77 80.5,1492.5C 84.0067,1477.28 86.6734,1461.95 88.5,1446.5C 93.693,1419.06 99.5263,1391.72 106,1364.5C 123.851,1286.09 142.184,1207.76 161,1129.5C 168.018,1103.11 177.018,1077.45 188,1052.5C 203.38,1018.44 226.213,990.271 256.5,968C 280.372,952.897 304.705,938.564 329.5,925C 336.775,921.194 344.109,917.694 351.5,914.5C 347.577,928.441 343.744,942.441 340,956.5C 335.386,975.735 331.22,995.069 327.5,1014.5C 329.199,1014.66 330.866,1014.49 332.5,1014C 336.299,1011.2 339.799,1008.04 343,1004.5C 348.123,996.906 352.956,989.239 357.5,981.5C 360.271,978.712 363.271,976.378 366.5,974.5C 366.351,973.448 366.517,972.448 367,971.5C 374.744,964.584 382.244,957.584 389.5,950.5C 394.777,959.961 401.443,968.461 409.5,976C 422.761,985.926 434.761,997.259 445.5,1010C 446.833,1010.67 448.167,1010.67 449.5,1010C 446.387,1004.28 442.887,998.779 439,993.5C 428.632,983.464 417.966,973.797 407,964.5C 401.82,957.304 396.82,949.97 392,942.5C 389.79,940.015 390.29,938.182 393.5,937C 398.155,936.501 402.821,936.334 407.5,936.5C 407.67,935.178 407.337,934.011 406.5,933C 403.787,931.725 400.953,930.891 398,930.5C 391.508,931.996 385.674,934.83 380.5,939C 369.188,950.124 359.688,962.624 352,976.5C 347.278,986.94 341.278,996.606 334,1005.5C 341.204,972.701 350.537,940.367 362,908.5C 363.608,904.944 365.441,901.611 367.5,898.5C 368.885,897.426 370.051,896.093 371,894.5C 373.047,891.07 374.547,887.403 375.5,883.5C 381.329,871.857 388.662,861.19 397.5,851.5C 399.064,857.94 400.397,864.44 401.5,871C 400.193,874.449 399.026,877.949 398,881.5C 395.715,900.917 401.381,917.584 415,931.5C 417.942,938.379 421.108,945.046 424.5,951.5 Z"/></g>
    <g><path style="opacity:1" fill="#090202" d="M 217.5,1121.5 C 216.124,1136 214.957,1150.67 214,1165.5C 213.678,1246.17 213.844,1326.83 214.5,1407.5C 212.163,1450.21 209.163,1492.88 205.5,1535.5C 203.5,1535.5 201.5,1535.5 199.5,1535.5C 203.438,1493.58 206.271,1451.58 208,1409.5C 207.593,1326.17 207.593,1242.84 208,1159.5C 209.186,1123.17 213.186,1087.17 220,1051.5C 221.136,1047.76 222.47,1044.09 224,1040.5C 226.071,1038.05 226.904,1038.71 226.5,1042.5C 222.773,1068.66 219.773,1094.99 217.5,1121.5 Z"/></g>
    <g><path style="opacity:1" fill="#8e3125" d="M 389.5,950.5 C 382.244,957.584 374.744,964.584 367,971.5C 366.517,972.448 366.351,973.448 366.5,974.5C 363.271,976.378 360.271,978.712 357.5,981.5C 364.051,967.576 372.717,955.076 383.5,944C 384.784,943.316 385.951,943.483 387,944.5C 387.573,946.641 388.406,948.641 389.5,950.5 Z"/></g>
    <g><path style="opacity:1" fill="#77d1ef" d="M 141.5,1178.5 C 129.043,1233.45 116.71,1288.45 104.5,1343.5C 103.876,1343.08 103.543,1342.42 103.5,1341.5C 115.416,1286.85 128.083,1232.51 141.5,1178.5 Z"/></g>
    <g><path style="opacity:1" fill="#be514b" d="M 217.5,1121.5 C 217.159,1139.86 216.326,1158.19 215,1176.5C 215.088,1253.67 214.922,1330.67 214.5,1407.5C 213.844,1326.83 213.678,1246.17 214,1165.5C 214.957,1150.67 216.124,1136 217.5,1121.5 Z"/></g>
    <g><path style="opacity:1" fill="#993d36" d="M 780.5,1208.5 C 780.076,1240.22 781.076,1271.88 783.5,1303.5C 781.819,1292.71 780.652,1281.71 780,1270.5C 779.171,1249.66 779.337,1229 780.5,1208.5 Z"/></g>
    <g><path style="opacity:1" fill="#c0332c" d="M 978.5,1161.5 C 978.335,1164.52 978.502,1167.52 979,1170.5C 981.096,1183.39 983.596,1196.06 986.5,1208.5C 1003.29,1316.98 1007.62,1425.98 999.5,1535.5C 931.167,1535.5 862.833,1535.5 794.5,1535.5C 794.5,1523.83 794.5,1512.17 794.5,1500.5C 796.263,1432.09 794.596,1363.76 789.5,1295.5C 787.297,1252.85 786.963,1210.18 788.5,1167.5C 791.188,1136.6 798.688,1106.94 811,1078.5C 821.922,1051.81 838.755,1029.65 861.5,1012C 872.326,1003.42 884.659,998.425 898.5,997C 899.833,995.667 899.833,994.333 898.5,993C 884.049,992.805 871.216,997.305 860,1006.5C 840.768,992.464 820.935,979.298 800.5,967C 766.234,949.034 731.568,931.867 696.5,915.5C 695.417,914.635 695.251,913.635 696,912.5C 702.297,900.781 707.13,888.448 710.5,875.5C 739.26,889.714 767.927,904.214 796.5,919C 830.835,937.045 863.835,957.045 895.5,979C 922.843,1000.01 942.009,1026.84 953,1059.5C 964.357,1092.78 972.857,1126.78 978.5,1161.5 Z"/></g>
    <g><path style="opacity:1" fill="#c0332c" d="M 631.5,1234.5 C 663.473,1236.2 695.473,1236.86 727.5,1236.5C 725.818,1276.06 722.151,1315.4 716.5,1354.5C 712.244,1358.25 707.577,1361.42 702.5,1364C 683.009,1373.93 663.343,1383.26 643.5,1392C 637.319,1394.34 630.985,1396.17 624.5,1397.5C 618.539,1396.57 612.872,1394.74 607.5,1392C 585.873,1381.19 565.207,1368.86 545.5,1355C 542.296,1352.13 539.463,1348.96 537,1345.5C 537.56,1305.66 540.394,1265.99 545.5,1226.5C 551.813,1225.88 558.146,1226.38 564.5,1228C 566.5,1229.62 568.333,1231.46 570,1233.5C 570.903,1232.3 572.069,1231.47 573.5,1231C 566.882,1230.18 566.882,1229.68 573.5,1229.5C 592.773,1231.98 612.107,1233.65 631.5,1234.5 Z"/></g>
    <g><path style="opacity:1" fill="#0c0504" d="M 412.5,1370.5 C 421.11,1368.94 426.943,1372.27 430,1380.5C 432.037,1389.59 428.871,1396.09 420.5,1400C 407.04,1400.53 401.207,1394.03 403,1380.5C 405.022,1375.98 408.189,1372.65 412.5,1370.5 Z"/></g>
    <g><path style="opacity:1" fill="#edf0ee" d="M 415.5,1375.5 C 421.779,1375.78 425.112,1379.11 425.5,1385.5C 425.234,1391.04 422.401,1394.37 417,1395.5C 405.011,1389.58 404.511,1382.91 415.5,1375.5 Z"/></g>
    <g><path style="opacity:1" fill="#b34943" d="M 789.5,1295.5 C 794.596,1363.76 796.263,1432.09 794.5,1500.5C 794.667,1473.5 794.5,1446.5 794,1419.5C 792.389,1378.17 790.889,1336.83 789.5,1295.5 Z"/></g>
    <g><path style="opacity:1" fill="#b63b34" d="M 447.5,1369.5 C 447.011,1385.55 446.011,1401.55 444.5,1417.5C 444.667,1420.83 444.833,1424.17 445,1427.5C 446.152,1421.23 446.818,1414.9 447,1408.5C 447.184,1416.08 447.684,1423.58 448.5,1431C 448.043,1431.41 447.709,1431.91 447.5,1432.5C 449.256,1434.19 449.756,1436.19 449,1438.5C 448.333,1437.17 447.667,1435.83 447,1434.5C 446.174,1439.59 446.508,1444.59 448,1449.5C 448.556,1447.4 449.056,1447.24 449.5,1449C 448.493,1450.52 447.827,1452.19 447.5,1454C 448.203,1457.39 448.036,1460.89 447,1464.5C 446.667,1460.17 446.333,1455.83 446,1451.5C 444.978,1450.65 444.145,1449.65 443.5,1448.5C 444.61,1443.89 444.777,1439.22 444,1434.5C 440.749,1454.66 439.083,1474.99 439,1495.5C 439.333,1494.5 439.667,1493.5 440,1492.5C 440.169,1485.48 440.669,1478.48 441.5,1471.5C 441.887,1478.25 442.887,1484.75 444.5,1491C 443.366,1492.02 443.699,1492.68 445.5,1493C 444.747,1494.49 443.914,1494.65 443,1493.5C 441.286,1495.04 439.786,1496.71 438.5,1498.5C 436.802,1509.12 435.135,1519.45 433.5,1529.5C 437.391,1475.94 442.058,1422.61 447.5,1369.5 Z"/></g>
    <g><path style="opacity:1" fill="#b4453e" d="M 88.5,1446.5 C 86.6734,1461.95 84.0067,1477.28 80.5,1492.5C 80.5698,1493.77 80.9032,1494.94 81.5,1496C 79.8644,1497.47 78.8644,1499.31 78.5,1501.5C 75.8532,1512.75 73.8532,1524.08 72.5,1535.5C 72.1667,1535.5 71.8333,1535.5 71.5,1535.5C 71.7971,1528.77 72.6305,1522.11 74,1515.5C 78.6345,1492.33 83.4678,1469.33 88.5,1446.5 Z"/></g>
    <g><path style="opacity:1" fill="#7ad0eb" d="M 1008.5,1499.5 C 1010,1465.19 1010.67,1430.85 1010.5,1396.5C 1011.65,1416.82 1011.82,1441.82 1011,1471.5C 1010.6,1484.85 1009.93,1498.18 1009,1511.5C 1008.5,1507.51 1008.33,1503.51 1008.5,1499.5 Z"/></g>
</svg>